<svg xmlns="http://www.w3.org/2000/svg" xmlns:xlink="http://www.w3.org/1999/xlink" preserveAspectRatio="xMidYMid" width="122.281" height="133.563" viewBox="0 0 122.281 133.563">
  <defs>
    <style>
      .cls-1 {
        fill: #de4f4f;
        fill-rule: evenodd;
      }
    </style>
  </defs>
  <path d="M110.455,133.568 L95.582,133.568 L26.712,133.568 L11.839,133.568 C5.311,133.568 -0.000,128.263 -0.000,121.742 L-0.000,87.816 C-0.000,77.660 5.710,68.813 14.091,64.306 C13.832,63.975 13.676,63.561 13.676,63.108 L13.676,63.077 C13.676,63.071 13.676,63.065 13.676,63.059 C13.703,55.519 19.853,49.391 27.408,49.391 L30.890,49.391 C30.765,48.963 30.652,48.530 30.553,48.091 L30.013,48.091 C25.271,48.091 21.414,44.238 21.414,39.502 L21.414,33.425 C21.414,28.689 25.271,24.836 30.013,24.836 L31.365,24.836 C35.259,12.175 47.075,2.944 61.010,2.944 L61.284,2.944 C69.506,2.944 76.989,6.158 82.544,11.393 L82.544,1.933 C82.544,0.860 83.415,-0.011 84.490,-0.011 C85.565,-0.011 86.437,0.860 86.437,1.933 L86.437,15.827 C88.394,18.536 89.925,21.572 90.929,24.836 L92.281,24.836 C97.023,24.836 100.881,28.689 100.881,33.425 L100.881,39.502 C100.881,44.238 97.023,48.091 92.281,48.091 L91.741,48.091 C91.642,48.530 91.529,48.963 91.404,49.391 L94.945,49.391 C102.500,49.391 108.650,55.519 108.677,63.059 C108.677,63.065 108.677,63.071 108.677,63.077 L108.677,63.108 C108.677,63.570 108.515,63.994 108.245,64.328 C116.604,68.842 122.295,77.677 122.295,87.816 L122.295,121.742 C122.295,128.263 116.983,133.568 110.455,133.568 ZM30.005,43.243 L30.005,33.914 L30.005,28.724 C27.413,28.728 25.306,30.836 25.306,33.425 L25.306,39.502 C25.306,42.091 27.413,44.199 30.005,44.203 L30.005,43.243 ZM92.289,33.914 L92.289,43.243 L92.289,44.203 C94.881,44.199 96.988,42.091 96.988,39.502 L96.988,33.425 C96.988,30.836 94.881,28.728 92.289,28.724 L92.289,33.914 ZM28.659,129.680 L93.636,129.680 L93.636,65.022 L72.767,65.022 C71.973,65.109 71.167,65.157 70.350,65.157 L51.944,65.157 C51.127,65.157 50.321,65.109 49.527,65.022 L28.659,65.022 L28.659,129.680 ZM3.892,121.742 C3.892,126.119 7.457,129.680 11.839,129.680 L24.766,129.680 L24.766,89.760 L3.892,89.760 L3.892,121.742 ZM3.979,85.872 L24.766,85.872 L24.766,65.104 C13.732,66.038 4.916,74.851 3.979,85.872 ZM27.408,53.280 C22.106,53.280 17.772,57.491 17.578,62.741 C20.429,61.702 23.505,61.134 26.712,61.134 L39.298,61.134 C36.433,59.107 34.075,56.414 32.451,53.280 L27.408,53.280 ZM88.397,33.914 C88.397,18.981 76.234,6.832 61.284,6.832 L61.010,6.832 C46.060,6.832 33.898,18.981 33.898,33.914 L33.898,43.243 C33.898,52.447 40.840,60.056 49.767,61.134 L72.527,61.134 C81.455,60.056 88.397,52.447 88.397,43.243 L88.397,33.914 ZM94.945,53.280 L90.023,53.280 C89.964,53.280 89.906,53.276 89.847,53.271 C88.223,56.408 85.864,59.105 82.996,61.134 L95.582,61.134 C98.811,61.134 101.908,61.709 104.776,62.762 C104.593,57.503 100.254,53.280 94.945,53.280 ZM97.528,65.104 L97.528,85.872 L118.315,85.872 C117.378,74.851 108.562,66.038 97.528,65.104 ZM118.402,89.760 L97.528,89.760 L97.528,129.680 L110.455,129.680 C114.837,129.680 118.402,126.119 118.402,121.742 L118.402,89.760 ZM67.103,56.451 L55.191,56.451 C45.796,56.451 38.153,48.817 38.153,39.433 C38.153,30.048 45.796,22.414 55.191,22.414 L67.103,22.414 C76.498,22.414 84.141,30.048 84.141,39.433 C84.141,48.817 76.498,56.451 67.103,56.451 ZM67.103,26.302 L55.191,26.302 C47.943,26.302 42.045,32.192 42.045,39.433 C42.045,46.673 47.943,52.564 55.191,52.564 L67.103,52.564 C74.351,52.564 80.249,46.673 80.249,39.433 C80.249,32.192 74.351,26.302 67.103,26.302 ZM52.309,42.425 C51.929,42.804 51.431,42.994 50.933,42.994 C50.435,42.994 49.936,42.804 49.556,42.425 C48.796,41.666 48.796,40.435 49.556,39.676 L56.451,32.789 C57.211,32.030 58.443,32.030 59.204,32.789 C59.963,33.548 59.963,34.779 59.204,35.538 L52.309,42.425 ZM48.962,37.626 C48.581,38.006 48.083,38.196 47.585,38.196 C47.087,38.196 46.589,38.006 46.209,37.626 C45.449,36.867 45.449,35.636 46.209,34.877 L49.834,31.256 C50.595,30.497 51.827,30.496 52.587,31.256 C53.347,32.015 53.347,33.246 52.587,34.005 L48.962,37.626 ZM83.522,82.703 L83.522,116.999 C83.522,118.072 82.651,118.943 81.576,118.943 L40.718,118.943 C39.643,118.943 38.772,118.072 38.772,116.999 L38.772,82.703 C38.772,81.630 39.643,80.760 40.718,80.760 L81.576,80.760 C82.651,80.760 83.522,81.630 83.522,82.703 ZM79.630,84.647 L42.664,84.647 L42.664,115.055 L79.630,115.055 L79.630,84.647 ZM51.606,89.689 L70.688,89.689 C71.763,89.689 72.634,90.559 72.634,91.632 C72.634,92.706 71.763,93.576 70.688,93.576 L51.606,93.576 C50.532,93.576 49.660,92.706 49.660,91.632 C49.660,90.559 50.532,89.689 51.606,89.689 ZM51.606,97.907 L70.688,97.907 C71.763,97.907 72.634,98.777 72.634,99.851 C72.634,100.925 71.763,101.795 70.688,101.795 L51.606,101.795 C50.532,101.795 49.660,100.925 49.660,99.851 C49.660,98.777 50.532,97.907 51.606,97.907 ZM51.606,106.126 L70.688,106.126 C71.763,106.126 72.634,106.996 72.634,108.070 C72.634,109.144 71.763,110.014 70.688,110.014 L51.606,110.014 C50.532,110.014 49.660,109.144 49.660,108.070 C49.660,106.996 50.532,106.126 51.606,106.126 Z" class="cls-1"/>
</svg>
