<svg xmlns="http://www.w3.org/2000/svg" xmlns:xlink="http://www.w3.org/1999/xlink" preserveAspectRatio="xMidYMid" width="111.688" height="107" viewBox="0 0 111.688 107">
  <defs>
    <style>
      .cls-1 {
        fill: #de4f4f;
        fill-rule: evenodd;
      }
    </style>
  </defs>
  <path d="M101.903,66.313 L99.055,63.468 L103.988,58.533 L93.028,58.534 L93.028,54.510 L103.989,54.508 L99.055,49.572 L101.903,46.727 L111.688,56.520 L101.903,66.313 ZM91.783,23.697 L84.035,31.449 L81.190,28.604 L88.936,20.853 L81.958,20.850 L81.960,16.826 L95.803,16.831 L95.809,30.674 L91.785,30.676 L91.783,23.697 ZM80.533,78.399 L80.533,107.000 L76.509,107.000 L76.509,77.582 C76.509,77.049 76.720,76.537 77.097,76.160 C82.726,70.520 85.826,63.025 85.826,55.056 C85.826,38.580 72.424,25.176 55.951,25.176 C39.477,25.176 26.074,38.580 26.074,55.056 C26.074,55.511 26.090,55.960 26.110,56.412 C26.126,56.794 26.033,57.173 25.842,57.504 L17.276,72.344 L21.199,72.344 C22.310,72.344 23.211,73.245 23.211,74.357 L23.211,86.948 C23.211,90.581 26.166,93.537 29.796,93.537 L43.413,93.537 C44.525,93.537 45.425,94.438 45.425,95.549 L45.425,107.000 L41.401,107.000 L41.401,97.562 L29.796,97.562 C23.946,97.562 19.187,92.800 19.187,86.948 L19.187,76.369 L13.791,76.369 C13.072,76.369 12.407,75.986 12.048,75.363 C11.688,74.740 11.689,73.972 12.049,73.351 L22.067,55.995 C22.057,55.683 22.050,55.370 22.050,55.056 C22.050,36.360 37.259,21.151 55.951,21.151 C74.643,21.151 89.850,36.360 89.850,55.056 C89.850,63.818 86.548,72.073 80.533,78.399 ZM58.523,7.700 L58.524,18.660 L54.500,18.660 L54.499,7.700 L49.565,12.633 L46.719,9.785 L56.510,-0.000 L66.304,9.785 L63.460,12.633 L58.523,7.700 ZM28.598,30.501 L20.849,22.753 L20.847,29.732 L16.823,29.730 L16.827,15.885 L30.670,15.879 L30.672,19.904 L23.693,19.907 L31.443,27.655 L28.598,30.501 ZM18.657,53.169 L18.657,57.194 L7.697,57.195 L12.627,62.132 L9.780,64.976 L0.000,55.184 L9.780,45.391 L12.627,48.235 L7.698,53.171 L18.657,53.169 ZM52.109,77.180 L51.419,81.145 C49.951,80.889 48.497,80.503 47.096,79.996 L48.467,76.211 C49.646,76.638 50.872,76.965 52.109,77.180 ZM45.047,74.621 L43.037,78.107 C41.751,77.365 40.519,76.504 39.374,75.546 L41.956,72.459 C42.923,73.268 43.963,73.995 45.047,74.621 ZM39.291,36.228 L41.885,39.306 C40.928,40.113 40.033,41.013 39.225,41.980 L36.136,39.399 C37.094,38.254 38.155,37.186 39.291,36.228 ZM37.066,45.075 C36.439,46.165 35.905,47.316 35.479,48.494 L31.695,47.129 C32.200,45.728 32.833,44.362 33.578,43.068 L37.066,45.075 ZM30.174,55.852 C30.174,54.379 30.300,52.900 30.549,51.455 L34.514,52.139 C34.304,53.358 34.198,54.608 34.198,55.852 L30.174,55.903 L30.174,55.852 ZM39.283,69.794 L36.206,72.387 C35.243,71.245 34.378,70.015 33.633,68.730 L37.113,66.710 C37.742,67.793 38.472,68.831 39.283,69.794 ZM30.569,60.361 L34.530,59.657 C34.751,60.898 35.081,62.122 35.512,63.297 L31.733,64.682 C31.222,63.287 30.830,61.834 30.569,60.361 ZM46.989,31.748 L48.377,35.525 C47.201,35.957 46.053,36.498 44.967,37.130 L42.943,33.651 C44.232,32.901 45.594,32.261 46.989,31.748 ZM51.307,30.578 C52.765,30.317 54.264,30.183 55.760,30.178 L55.774,34.202 C54.509,34.206 53.244,34.320 52.015,34.539 L51.307,30.578 ZM60.214,30.549 C61.683,30.802 63.139,31.185 64.540,31.689 L63.178,35.476 C61.997,35.051 60.771,34.728 59.532,34.515 L60.214,30.549 ZM41.190,63.293 L41.045,48.572 C41.045,48.569 41.046,48.567 41.046,48.564 C41.046,48.562 41.045,48.560 41.045,48.557 C41.044,48.469 41.067,48.385 41.078,48.299 C41.090,48.212 41.090,48.123 41.112,48.039 C41.138,47.943 41.184,47.857 41.223,47.766 C41.253,47.696 41.272,47.622 41.310,47.556 C41.357,47.474 41.422,47.405 41.480,47.330 C41.529,47.266 41.569,47.197 41.626,47.139 C41.683,47.081 41.756,47.038 41.821,46.986 C41.893,46.929 41.957,46.864 42.038,46.817 C42.040,46.816 42.043,46.815 42.046,46.814 C42.048,46.813 42.049,46.811 42.051,46.810 L54.803,39.445 C55.423,39.086 56.185,39.085 56.807,39.440 L69.477,46.681 C69.478,46.682 69.479,46.682 69.480,46.682 C69.636,46.771 69.777,46.880 69.901,47.004 C69.941,47.043 69.968,47.093 70.004,47.136 C70.080,47.226 70.160,47.314 70.219,47.415 C70.250,47.468 70.265,47.528 70.290,47.583 C70.339,47.685 70.391,47.786 70.422,47.895 C70.438,47.956 70.437,48.020 70.448,48.082 C70.467,48.191 70.494,48.297 70.495,48.410 L70.642,63.130 C70.649,63.856 70.265,64.530 69.636,64.893 L56.881,72.260 C56.776,72.320 56.662,72.356 56.550,72.396 C56.497,72.415 56.448,72.446 56.394,72.460 C56.224,72.506 56.050,72.529 55.875,72.529 C55.703,72.529 55.531,72.507 55.363,72.463 C55.323,72.452 55.285,72.428 55.245,72.415 C55.120,72.373 54.995,72.331 54.878,72.265 C54.877,72.264 54.876,72.263 54.875,72.263 L42.204,65.020 C41.583,64.666 41.197,64.008 41.190,63.293 ZM57.789,60.741 L57.853,67.051 L66.606,61.996 L66.505,51.896 L57.751,56.949 L57.789,60.741 ZM55.723,53.473 L64.442,48.439 L55.814,43.508 L47.096,48.543 L48.718,49.471 L55.723,53.473 ZM45.202,62.099 L53.827,67.029 L53.759,60.199 L53.727,56.968 L49.400,54.495 L45.103,52.039 L45.202,62.099 ZM60.325,81.136 C58.867,81.392 57.370,81.524 55.873,81.526 L55.867,77.501 C57.132,77.499 58.398,77.389 59.628,77.172 L60.325,81.136 ZM68.697,78.080 C67.408,78.827 66.045,79.465 64.646,79.975 L63.267,76.194 C64.445,75.765 65.593,75.227 66.679,74.598 L68.697,78.080 ZM66.600,37.061 L68.602,33.569 C69.893,34.310 71.128,35.169 72.274,36.124 L69.696,39.216 C68.730,38.410 67.689,37.685 66.600,37.061 ZM74.598,66.669 C75.228,65.582 75.765,64.433 76.193,63.253 L79.975,64.628 C79.465,66.029 78.829,67.394 78.082,68.685 L74.598,66.669 ZM81.515,55.852 C81.515,57.346 81.385,58.845 81.129,60.306 L77.165,59.610 C77.382,58.378 77.491,57.113 77.491,55.852 L77.491,55.748 L81.515,55.748 L81.515,55.852 ZM72.375,41.875 L75.446,39.275 C76.408,40.410 77.277,41.640 78.027,42.926 L74.553,44.956 C73.919,43.870 73.186,42.833 72.375,41.875 ZM81.111,51.288 L77.150,51.998 C76.929,50.764 76.596,49.541 76.161,48.362 L79.936,46.969 C80.453,48.368 80.848,49.821 81.111,51.288 ZM72.434,69.759 L75.515,72.347 C74.560,73.485 73.497,74.549 72.356,75.509 L69.765,72.430 C70.729,71.618 71.626,70.720 72.434,69.759 Z" class="cls-1"/>
</svg>
