<svg xmlns="http://www.w3.org/2000/svg" xmlns:xlink="http://www.w3.org/1999/xlink" preserveAspectRatio="xMidYMid" width="147.47" height="145.469" viewBox="0 0 147.47 145.469">
  <defs>
    <style>
      .cls-1 {
        fill: #de4f4f;
        fill-rule: evenodd;
      }
    </style>
  </defs>
  <path d="M147.192,79.856 C147.087,81.058 146.077,81.965 144.893,81.965 C144.825,81.965 144.758,81.962 144.688,81.956 C143.417,81.844 142.476,80.724 142.588,79.452 C142.759,77.490 142.847,75.489 142.847,73.504 C142.847,72.227 143.882,71.193 145.158,71.193 C146.434,71.193 147.469,72.227 147.469,73.504 C147.469,75.623 147.376,77.761 147.192,79.856 ZM144.485,83.483 C145.743,83.705 146.581,84.905 146.357,86.161 C145.988,88.242 145.520,90.331 144.967,92.371 C144.688,93.399 143.756,94.077 142.739,94.077 C142.538,94.077 142.335,94.051 142.132,93.996 C140.899,93.662 140.173,92.393 140.507,91.161 C141.023,89.254 141.461,87.300 141.807,85.354 C142.030,84.097 143.238,83.264 144.485,83.483 ZM141.661,95.464 C142.859,95.906 143.471,97.235 143.029,98.431 C142.294,100.417 141.464,102.391 140.559,104.298 C140.164,105.132 139.335,105.620 138.469,105.620 C138.137,105.620 137.800,105.548 137.481,105.397 C136.327,104.850 135.836,103.472 136.382,102.319 C137.230,100.535 138.006,98.688 138.692,96.831 C139.134,95.634 140.472,95.025 141.661,95.464 ZM137.580,109.922 C136.509,111.747 135.344,113.543 134.119,115.261 C133.668,115.894 132.958,116.231 132.235,116.231 C131.770,116.231 131.303,116.092 130.896,115.802 C129.857,115.063 129.614,113.620 130.355,112.581 C131.501,110.972 132.590,109.289 133.596,107.582 C134.244,106.480 135.663,106.116 136.759,106.760 C137.860,107.406 138.227,108.822 137.580,109.922 ZM75.303,131.876 C60.155,131.876 45.787,126.080 34.844,115.555 C24.483,105.589 18.244,92.397 17.110,78.202 C11.953,77.989 7.820,73.737 7.820,68.527 C7.820,63.186 12.167,58.840 17.510,58.840 C17.930,58.840 18.347,58.871 18.762,58.925 C25.349,33.417 48.765,15.132 75.303,15.132 C107.501,15.132 133.697,41.317 133.697,73.504 C133.697,105.690 107.501,131.876 75.303,131.876 ZM18.738,63.612 C18.335,63.511 17.924,63.461 17.510,63.461 C14.716,63.461 12.443,65.734 12.443,68.527 C12.443,71.325 14.716,73.601 17.510,73.601 C17.618,73.601 17.723,73.597 17.826,73.587 C20.520,73.398 22.586,71.177 22.586,68.527 C22.586,66.192 21.004,64.170 18.738,63.612 ZM75.303,17.300 C49.749,17.300 27.210,34.909 20.870,59.471 C24.639,60.857 27.208,64.425 27.208,68.527 C27.208,73.228 23.802,77.216 19.280,78.050 C21.602,107.191 45.788,129.707 75.303,129.707 C106.305,129.707 131.527,104.495 131.527,73.504 C131.527,42.513 106.305,17.300 75.303,17.300 ZM111.163,106.078 C111.163,110.271 107.751,113.682 103.555,113.682 C101.363,113.682 99.299,112.741 97.866,111.125 C91.053,115.230 83.314,117.433 75.303,117.433 C66.598,117.433 58.275,114.859 51.057,110.058 C49.924,110.933 48.525,111.441 47.051,111.441 C43.387,111.441 40.406,108.461 40.406,104.799 C40.406,103.566 40.754,102.399 41.380,101.374 C34.913,93.508 31.358,83.699 31.358,73.504 C31.358,49.280 51.072,29.574 75.303,29.574 C75.648,29.574 76.018,29.600 76.377,29.615 C77.646,25.645 81.330,22.896 85.578,22.896 C90.920,22.896 95.268,27.241 95.268,32.582 C95.268,33.176 95.196,33.762 95.090,34.339 C109.818,41.800 119.248,56.920 119.248,73.504 C119.248,83.623 115.746,93.364 109.373,101.194 C110.511,102.540 111.163,104.274 111.163,106.078 ZM101.096,107.770 C101.644,108.576 102.567,109.062 103.555,109.062 C105.202,109.062 106.541,107.723 106.541,106.078 C106.541,105.233 106.198,104.457 105.576,103.893 C105.014,103.371 104.303,103.095 103.555,103.095 C101.911,103.095 100.572,104.433 100.572,106.078 C100.572,106.687 100.748,107.256 101.096,107.770 ZM85.578,27.516 C83.245,27.516 81.221,29.087 80.657,31.338 C80.551,31.743 80.501,32.154 80.501,32.582 C80.501,35.381 82.778,37.657 85.578,37.657 C87.915,37.657 89.935,36.075 90.495,33.810 C90.596,33.409 90.645,32.998 90.645,32.582 C90.645,29.789 88.371,27.516 85.578,27.516 ZM117.079,73.504 C117.079,57.871 108.272,43.587 94.471,36.431 C92.966,39.935 89.505,42.278 85.578,42.278 C80.230,42.278 75.878,37.928 75.878,32.582 C75.878,32.304 75.906,32.031 75.929,31.758 C75.722,31.755 75.509,31.743 75.303,31.743 C52.268,31.743 33.528,50.477 33.528,73.504 C33.528,83.062 36.807,92.270 42.795,99.696 C43.966,98.720 45.474,98.156 47.051,98.156 C50.715,98.156 53.696,101.136 53.696,104.799 C53.696,106.125 53.277,107.396 52.551,108.477 C59.342,112.908 67.152,115.264 75.303,115.264 C82.889,115.264 90.227,113.206 96.686,109.335 C96.202,108.316 95.949,107.210 95.949,106.078 C95.949,101.885 99.362,98.474 103.555,98.474 C105.072,98.474 106.521,98.935 107.756,99.763 C113.779,92.330 117.079,83.094 117.079,73.504 ZM75.303,104.215 C58.362,104.215 44.580,90.438 44.580,73.504 C44.580,56.569 58.362,42.791 75.303,42.791 C90.546,42.791 103.248,53.805 105.593,68.665 C108.260,69.536 110.200,72.012 110.200,74.950 C110.200,78.137 107.942,80.803 104.942,81.443 C101.375,94.730 89.208,104.215 75.303,104.215 ZM75.303,47.412 C60.911,47.412 49.202,59.117 49.202,73.504 C49.202,87.890 60.911,99.594 75.303,99.594 C86.932,99.594 97.162,91.799 100.370,80.787 C100.097,80.639 99.838,80.471 99.591,80.289 C99.481,80.206 99.381,80.113 99.276,80.025 C99.105,79.881 98.940,79.732 98.785,79.572 C98.689,79.472 98.596,79.372 98.506,79.267 C98.334,79.066 98.176,78.853 98.029,78.632 C97.981,78.560 97.927,78.494 97.882,78.421 C97.700,78.122 97.546,77.807 97.412,77.480 C97.374,77.386 97.345,77.289 97.310,77.193 C97.218,76.934 97.142,76.669 97.082,76.397 C97.059,76.291 97.034,76.187 97.016,76.079 C96.954,75.711 96.911,75.336 96.911,74.950 C96.911,74.536 96.960,74.136 97.033,73.743 C97.054,73.627 97.084,73.515 97.112,73.402 C97.181,73.116 97.267,72.838 97.371,72.568 C97.412,72.462 97.450,72.356 97.496,72.253 C97.813,71.543 98.249,70.902 98.781,70.349 C98.858,70.270 98.940,70.198 99.020,70.123 C99.229,69.927 99.448,69.745 99.681,69.577 C99.773,69.511 99.861,69.443 99.957,69.382 C100.270,69.179 100.596,68.994 100.943,68.846 C100.955,68.841 100.965,68.834 100.976,68.829 C100.978,68.828 100.980,68.827 100.981,68.826 C98.766,56.483 88.065,47.412 75.303,47.412 ZM75.302,89.775 C66.326,89.775 59.024,82.476 59.024,73.504 C59.024,64.532 66.326,57.232 75.302,57.232 C84.277,57.232 91.578,64.532 91.578,73.504 C91.578,82.476 84.277,89.775 75.302,89.775 ZM75.302,61.853 C68.875,61.853 63.646,67.080 63.646,73.504 C63.646,79.928 68.875,85.154 75.302,85.154 C81.728,85.154 86.956,79.928 86.956,73.504 C86.956,67.080 81.728,61.853 75.302,61.853 ZM67.373,4.610 C65.399,4.749 63.410,4.978 61.458,5.290 C61.335,5.310 61.212,5.319 61.090,5.319 C59.975,5.319 58.992,4.510 58.810,3.374 C58.608,2.114 59.468,0.930 60.727,0.728 C62.812,0.394 64.939,0.150 67.049,0.001 C68.297,-0.103 69.426,0.868 69.516,2.143 C69.606,3.415 68.646,4.520 67.373,4.610 ZM55.624,6.493 C53.710,6.977 51.792,7.553 49.925,8.207 C49.672,8.295 49.415,8.337 49.162,8.337 C48.206,8.337 47.314,7.741 46.980,6.788 C46.559,5.584 47.194,4.267 48.399,3.845 C50.394,3.147 52.445,2.531 54.493,2.013 C55.730,1.700 56.988,2.451 57.300,3.687 C57.612,4.924 56.863,6.180 55.624,6.493 ZM44.399,10.419 C42.604,11.231 40.818,12.138 39.091,13.113 C38.732,13.316 38.341,13.412 37.956,13.412 C37.150,13.412 36.368,12.988 35.941,12.236 C35.314,11.125 35.707,9.716 36.819,9.089 C38.663,8.047 40.573,7.079 42.494,6.209 C43.650,5.683 45.026,6.198 45.552,7.361 C46.079,8.524 45.563,9.893 44.399,10.419 ZM34.038,16.264 C32.408,17.383 30.808,18.589 29.280,19.847 C28.850,20.202 28.329,20.375 27.811,20.375 C27.145,20.375 26.484,20.088 26.027,19.534 C25.214,18.549 25.354,17.094 26.340,16.282 C27.971,14.937 29.680,13.650 31.423,12.454 C32.473,11.735 33.915,12.000 34.635,13.052 C35.358,14.104 35.091,15.543 34.038,16.264 ZM24.853,23.833 C23.449,25.212 22.082,26.678 20.790,28.190 C20.333,28.725 19.685,29.000 19.031,29.000 C18.502,29.000 17.968,28.818 17.533,28.447 C16.562,27.619 16.446,26.161 17.276,25.190 C18.654,23.575 20.113,22.010 21.615,20.537 C22.527,19.642 23.989,19.656 24.883,20.567 C25.777,21.477 25.764,22.939 24.853,23.833 ZM17.125,32.885 C15.978,34.494 14.889,36.177 13.884,37.885 C13.454,38.617 12.682,39.025 11.890,39.025 C11.492,39.025 11.088,38.923 10.721,38.707 C9.620,38.060 9.252,36.645 9.899,35.544 C10.971,33.720 12.136,31.923 13.360,30.205 C14.104,29.165 15.548,28.925 16.584,29.664 C17.623,30.404 17.865,31.846 17.125,32.885 ZM11.099,43.149 C10.251,44.934 9.475,46.780 8.789,48.636 C8.445,49.570 7.561,50.147 6.621,50.147 C6.354,50.147 6.084,50.101 5.820,50.004 C4.622,49.562 4.010,48.233 4.453,47.036 C5.187,45.050 6.017,43.076 6.921,41.169 C7.471,40.015 8.854,39.528 10.000,40.071 C11.154,40.618 11.645,41.996 11.099,43.149 ZM5.349,51.471 C6.582,51.805 7.309,53.074 6.974,54.306 C6.458,56.213 6.020,58.167 5.674,60.113 C5.476,61.233 4.500,62.021 3.402,62.021 C3.268,62.021 3.131,62.009 2.996,61.985 C1.738,61.761 0.900,60.563 1.124,59.306 C1.493,57.225 1.961,55.136 2.514,53.096 C2.848,51.865 4.114,51.138 5.349,51.471 ZM2.793,63.511 C4.064,63.623 5.005,64.743 4.893,66.014 C4.722,67.977 4.634,69.978 4.634,71.963 C4.634,73.240 3.599,74.274 2.323,74.274 C1.047,74.274 0.012,73.240 0.012,71.963 C0.012,69.844 0.106,67.707 0.289,65.611 C0.402,64.339 1.529,63.405 2.793,63.511 ZM80.108,140.857 C82.082,140.717 84.071,140.488 86.023,140.176 C87.266,139.968 88.469,140.832 88.671,142.092 C88.873,143.352 88.013,144.536 86.754,144.738 C84.668,145.072 82.542,145.317 80.433,145.466 C80.377,145.470 80.323,145.472 80.267,145.472 C79.065,145.472 78.051,144.541 77.965,143.324 C77.875,142.051 78.835,140.946 80.108,140.857 ZM91.855,138.975 C93.769,138.491 95.688,137.915 97.555,137.261 C98.762,136.841 100.077,137.475 100.499,138.679 C100.921,139.883 100.286,141.201 99.081,141.623 C97.085,142.321 95.035,142.937 92.987,143.454 C92.797,143.503 92.606,143.526 92.419,143.526 C91.385,143.526 90.445,142.828 90.180,141.781 C89.867,140.544 90.617,139.288 91.855,138.975 ZM103.082,135.048 C104.880,134.234 106.664,133.328 108.390,132.354 C109.496,131.727 110.909,132.120 111.540,133.231 C112.167,134.341 111.774,135.751 110.662,136.378 C108.819,137.418 106.911,138.387 104.989,139.257 C104.680,139.398 104.356,139.464 104.037,139.464 C103.157,139.464 102.317,138.959 101.930,138.106 C101.404,136.944 101.918,135.575 103.082,135.048 ZM113.443,129.202 C115.073,128.084 116.674,126.879 118.201,125.620 C119.187,124.808 120.642,124.949 121.454,125.933 C122.267,126.918 122.127,128.373 121.141,129.185 C119.510,130.530 117.801,131.817 116.058,133.013 C115.659,133.286 115.204,133.418 114.752,133.418 C114.016,133.418 113.293,133.067 112.846,132.415 C112.124,131.363 112.390,129.924 113.443,129.202 ZM122.628,121.633 C124.032,120.254 125.400,118.788 126.691,117.276 C127.520,116.308 128.979,116.191 129.948,117.019 C130.919,117.847 131.035,119.306 130.205,120.277 C128.827,121.891 127.368,123.456 125.866,124.930 C125.416,125.371 124.831,125.592 124.247,125.592 C123.648,125.592 123.051,125.361 122.598,124.899 C121.704,123.990 121.717,122.527 122.628,121.633 Z" class="cls-1"/>
</svg>
