<?xml version="1.0" encoding="utf-8"?>
<!-- Generator: Adobe Illustrator 19.1.0, SVG Export Plug-In . SVG Version: 6.00 Build 0)  -->
<!DOCTYPE svg PUBLIC "-//W3C//DTD SVG 1.1//EN" "http://www.w3.org/Graphics/SVG/1.1/DTD/svg11.dtd">
<svg version="1.1" id="Layer_1" xmlns="http://www.w3.org/2000/svg" xmlns:xlink="http://www.w3.org/1999/xlink" x="0px" y="0px"
	 viewBox="-589 351 100 100" style="enable-background:new -589 351 100 100;" xml:space="preserve">
<style type="text/css">
	.st0{fill:#9CBAF7;}
	.st1{opacity:0.4;fill:#1B66FF;enable-background:new    ;}
	.st2{fill:#27272B;}
	.st3{fill:#F2F2F2;}
	.st4{fill:#FFFFFF;}
	.st5{fill:#1B66FF;}
	.st6{display:none;}
	.st7{display:inline;opacity:0.4;fill:#1B66FF;enable-background:new    ;}
	.st8{display:inline;}
	.st9{clip-path:url(#SVGID_2_);fill:#1B66FF;}
	.st10{opacity:0.4;clip-path:url(#SVGID_4_);fill:#1B66FF;enable-background:new    ;}
	.st11{display:inline;fill:#27272B;}
	.st12{display:inline;fill:#FFFFFF;}
	.st13{display:inline;opacity:0.2;fill:#1B66FF;enable-background:new    ;}
	.st14{display:inline;fill:none;}
	.st15{display:inline;opacity:0.4;fill:none;stroke:#1B66FF;stroke-width:2;stroke-miterlimit:10;enable-background:new    ;}
	.st16{display:inline;fill:none;stroke:#27272B;stroke-width:2;stroke-miterlimit:10;}
	.st17{display:inline;fill:#1B66FF;stroke:#FFFFFF;stroke-width:4;stroke-miterlimit:10;}
	.st18{display:inline;fill:#FFFFFF;stroke:#1B66FF;stroke-width:2;stroke-miterlimit:10;}
	.st19{clip-path:url(#SVGID_6_);fill:#FFFFFF;}
	.st20{clip-path:url(#SVGID_8_);fill:#27272B;}
	.st21{clip-path:url(#SVGID_10_);fill:#27272B;}
	.st22{display:inline;fill:#1B66FF;}
	
		.st23{display:inline;fill:#FFFFFF;stroke:#FFFFFF;stroke-width:5;stroke-linecap:round;stroke-linejoin:round;stroke-miterlimit:10;}
	.st24{fill:none;stroke:#FFFFFF;stroke-width:7;stroke-linecap:round;stroke-linejoin:round;stroke-miterlimit:10;}
	.st25{fill:none;stroke:#1B66FF;stroke-width:1.5;stroke-linecap:round;stroke-linejoin:round;stroke-miterlimit:10;}
	
		.st26{display:inline;fill:#FFFFFF;stroke:#1B66FF;stroke-width:1.5;stroke-linecap:round;stroke-linejoin:round;stroke-miterlimit:10;}
	.st27{display:inline;fill:#F2F2F2;}
	.st28{fill:#FFFFFF;stroke:#27272B;stroke-miterlimit:10;}
	.st29{display:inline;fill:#FFFFFF;stroke:#000000;stroke-width:2;stroke-miterlimit:10;}
	.st30{clip-path:url(#SVGID_12_);}
	.st31{fill:none;stroke:#1B66FF;stroke-width:8;stroke-miterlimit:10;}
	.st32{fill:none;stroke:#FFFFFF;stroke-width:6;stroke-miterlimit:10;}
	.st33{display:inline;fill:#1B66FF;fill-opacity:0.3;stroke:#1B66FF;stroke-linejoin:round;stroke-miterlimit:10;}
	.st34{display:inline;fill:none;stroke:#1B66FF;stroke-linejoin:round;stroke-miterlimit:10;}
	.st35{display:inline;fill:none;stroke:#27272B;stroke-width:2.5;stroke-miterlimit:10;}
	.st36{display:inline;fill:#27272B;fill-opacity:0.5;}
	.st37{fill:none;stroke:#27272B;stroke-miterlimit:10;}
	.st38{fill:#27272B;fill-opacity:0.5;}
	.st39{fill:#1B66FF;fill-opacity:0.3;}
	.st40{fill:none;stroke:#27272B;stroke-width:7.5;stroke-miterlimit:10;}
	.st41{fill:none;stroke:#FFFFFF;stroke-width:3;stroke-miterlimit:10;}
	.st42{display:inline;fill:#FFFFFF;stroke:#27272B;stroke-width:2;stroke-miterlimit:10;}
	.st43{clip-path:url(#SVGID_14_);fill:#1B66FF;fill-opacity:0.3;}
	.st44{clip-path:url(#SVGID_16_);fill:#1B66FF;fill-opacity:0.3;}
	.st45{display:inline;fill:none;stroke:#27272B;stroke-miterlimit:10;}
	.st46{fill:none;stroke:#27272B;stroke-width:2;stroke-miterlimit:10;}
	.st47{opacity:0.3;}
	.st48{opacity:0.3;enable-background:new    ;}
	.st49{clip-path:url(#SVGID_18_);}
	.st50{fill:#2B2B2B;}
</style>
<g id="business">
	<g>
		<path class="st0" d="M-556.2,392h-0.6c-0.3,0.6-0.6,1.3-0.9,2h8.5c0.6,0,1-0.4,1-1s-0.4-1-1-1h-2.5c-0.3,0-0.5-0.2-0.5-0.5
			s0.2-0.5,0.5-0.5h11.5c0.6,0,1-0.4,1-1s-0.4-1-1-1h-2c-0.3,0-0.5-0.2-0.5-0.5s0.2-0.5,0.5-0.5h10c0.6,0,1-0.4,1-1s-0.4-1-1-1h-20
			c-0.7,0.6-1.4,1.3-2,2h4c0.3,0,0.5,0.2,0.5,0.5s-0.2,0.5-0.5,0.5h-4.8c-0.5,0.6-0.9,1.3-1.3,2h0.1c0.3,0,0.5,0.2,0.5,0.5
			S-555.9,392-556.2,392z"/>
		<path class="st0" d="M-526.6,394h6.4c-0.3-0.7-0.5-1.4-0.9-2h-15c-0.6,0-1,0.4-1,1s0.4,1,1,1h3c0.3,0,0.5,0.2,0.5,0.5
			s-0.2,0.5-0.5,0.5h-1.5c-0.6,0-1,0.4-1,1s0.4,1,1,1h1c0.3,0,0.5,0.2,0.5,0.5s-0.2,0.5-0.5,0.5h-5c-0.6,0-1,0.4-1,1s0.4,1,1,1h9
			c0.6,0,1-0.4,1-1s-0.4-1-1-1h-1c-0.3,0-0.5-0.2-0.5-0.5s0.2-0.5,0.5-0.5h6.5c0.6,0,1-0.4,1-1s-0.4-1-1-1h-2.5
			c-0.3,0-0.5-0.2-0.5-0.5S-526.8,394-526.6,394z"/>
		<path class="st0" d="M-536.6,420h1.5c0.6,0,1-0.4,1-1s-0.4-1-1-1h-1c-0.3,0-0.5-0.2-0.5-0.5s0.2-0.5,0.5-0.5h5c0.6,0,1-0.4,1-1
			s-0.4-1-1-1h-9c-0.6,0-1,0.4-1,1s0.4,1,1,1h1c0.3,0,0.5,0.2,0.5,0.5s-0.3,0.5-0.5,0.5h-6.5c-0.6,0-1,0.4-1,1c0,0.2,0,0.3,0.1,0.4
			c0.5,0.2,1,0.4,1.6,0.6h1.8c0.3,0,0.5,0.2,0.5,0.5c0,0,0,0,0,0.1c1.2,0.2,2.4,0.4,3.7,0.4c0.6,0,1.3,0,1.9-0.1
			c-0.1-0.1-0.1-0.2-0.1-0.3C-537.1,420.2-536.9,420-536.6,420z"/>
	</g>
	<path class="st1" d="M-514.5,434.8L-514.5,434.8c-1.4-1.4-1.4-3.7,0-5.1l0,0c0.2-0.2,0.2-0.6,0-0.8l-0.1-0.1
		c-0.2-0.2-0.6-0.2-0.8,0l0,0c-1.4,1.4-3.7,1.4-5.1,0l0,0c-0.2-0.2-0.6-0.2-0.8,0l-0.1,0.1c-0.2,0.2-0.2,0.6,0,0.8l0,0
		c1.4,1.4,1.4,3.7,0,5.1l0,0c-0.2,0.2-0.2,0.6,0,0.8l0.1,0.1c0.2,0.2,0.6,0.2,0.8,0l0,0c1.4-1.4,3.7-1.4,5.1,0l0,0
		c0.2,0.2,0.6,0.2,0.8,0l0.1-0.1C-514.2,435.4-514.2,435.1-514.5,434.8z"/>
	<path class="st1" d="M-518.9,372.2L-518.9,372.2c-2,0-3.6-1.6-3.6-3.6l0,0c0-0.3-0.3-0.6-0.6-0.6h-0.1c-0.3,0-0.6,0.3-0.6,0.6l0,0
		c0,2-1.6,3.6-3.6,3.6l0,0c-0.3,0-0.6,0.3-0.6,0.6v0.1c0,0.3,0.3,0.6,0.6,0.6l0,0c2,0,3.6,1.6,3.6,3.6l0,0c0,0.3,0.3,0.6,0.6,0.6
		h0.1c0.3,0,0.6-0.3,0.6-0.6l0,0c0-2,1.6-3.6,3.6-3.6l0,0c0.3,0,0.6-0.3,0.6-0.6v-0.1C-518.3,372.5-518.6,372.2-518.9,372.2z"/>
	<g>
		<path class="st2" d="M-538.9,421.9c-11.6,0-21-9.4-21-21s9.4-21,21-21c11.6,0,21,9.4,21,21S-527.3,421.9-538.9,421.9z
			 M-538.9,381.9c-10.5,0-19,8.5-19,19s8.5,19,19,19s19-8.5,19-19S-528.5,381.9-538.9,381.9z"/>
	</g>
	<g>
		<g>
			<circle class="st3" cx="-519.2" cy="405.7" r="4.8"/>
			<path class="st3" d="M-519.2,413.3c-4.2,0-7.6-3.4-7.6-7.6c0-4.2,3.4-7.6,7.6-7.6s7.6,3.4,7.6,7.6
				C-511.6,409.9-515,413.3-519.2,413.3z M-519.2,403.7c-1.1,0-2,0.9-2,2c0,1.1,0.9,2,2,2c1.1,0,2-0.9,2-2
				C-517.2,404.6-518.1,403.7-519.2,403.7z"/>
		</g>
	</g>
	<g>
		<path class="st3" d="M-509.7,401c0,10.4-26.3,10.8-29.3,10.8s-29.2-0.3-29.2-10.8h7.4c2.4,1.5,9.9,3.8,21.8,3.8s19.4-2.2,21.8-3.8
			H-509.7z"/>
	</g>
	<path class="st2" d="M-539,353.5c26.2,0,47.5,21.3,47.5,47.5s-21.3,47.5-47.5,47.5s-47.5-21.3-47.5-47.5S-565.2,353.5-539,353.5
		 M-539,351c-27.6,0-50,22.4-50,50s22.4,50,50,50c27.6,0,50-22.4,50-50S-511.4,351-539,351L-539,351z"/>
	<g>
		<g>
			<circle class="st4" cx="-519.2" cy="405.7" r="4.3"/>
			<path class="st5" d="M-519.2,410.7c-2.8,0-5-2.2-5-5c0-2.8,2.2-5,5-5s5,2.2,5,5C-514.2,408.5-516.4,410.7-519.2,410.7z"/>
		</g>
	</g>
	<path class="st1" d="M-572.6,398.4L-572.6,398.4c-1.4,1.4-3.7,1.4-5.1,0l0,0c-0.2-0.2-0.6-0.2-0.8,0l-0.1,0.1
		c-0.2,0.2-0.2,0.6,0,0.8l0,0c1.4,1.4,1.4,3.7,0,5.1l0,0c-0.2,0.2-0.2,0.6,0,0.8l0.1,0.1c0.2,0.2,0.6,0.2,0.8,0l0,0
		c1.4-1.4,3.7-1.4,5.1,0l0,0c0.2,0.2,0.6,0.2,0.8,0l0.1-0.1c0.2-0.2,0.2-0.6,0-0.8l0,0c-1.4-1.4-1.4-3.7,0-5.1l0,0
		c0.2-0.2,0.2-0.6,0-0.8l-0.1-0.1C-572,398.1-572.4,398.1-572.6,398.4z"/>
	<g>
		<path class="st5" d="M-558.5,397c-3.5,1.2-5.6,2.6-5.6,4c0,3.1,10.3,6.5,25.1,6.5s25.1-3.4,25.1-6.5c0-1.4-2-2.8-5.5-3.9l-0.2-1.6
			c4.3,1.3,7.2,3.2,7.2,5.6c0,5.2-13.7,8-26.6,8s-26.6-2.8-26.6-8c0-2.4,3-4.3,7.4-5.7L-558.5,397z"/>
	</g>
	<g>
		<path class="st2" d="M-557.9,401h-2c0-11.6,9.4-21,21-21c10.2,0,18.9,7.3,20.7,17.3l-2,0.4c-1.6-9.1-9.5-15.7-18.7-15.7
			C-549.4,382-557.9,390.5-557.9,401z"/>
	</g>
</g>
<g id="working_x5F_gfx" class="st6">
	
		<ellipse transform="matrix(-0.1435 -0.9896 0.9896 -0.1435 -513.6871 95.0587)" class="st7" cx="-215.7" cy="269.8" rx="9.7" ry="42.3"/>
	<g class="st8">
		<g>
			<path id="SVGID_25_" class="st4" d="M-214.3,284.9c-6.2,0.9-12.1,1.3-17.3,1.2c4.5-0.1,9.5-0.5,14.6-1.2
				c21.2-3.1,37.6-10.9,36.7-17.4c-0.7-4.6-9.7-7.3-22.4-7.5c14.1-0.2,24.4,2.6,25.1,7.5C-176.6,274-193.1,281.8-214.3,284.9z"/>
		</g>
		<g>
			<defs>
				<path id="SVGID_1_" d="M-214.3,284.9c-6.2,0.9-12.1,1.3-17.3,1.2c4.5-0.1,9.5-0.5,14.6-1.2c21.2-3.1,37.6-10.9,36.7-17.4
					c-0.7-4.6-9.7-7.3-22.4-7.5c14.1-0.2,24.4,2.6,25.1,7.5C-176.6,274-193.1,281.8-214.3,284.9z"/>
			</defs>
			<clipPath id="SVGID_2_">
				<use xlink:href="#SVGID_1_"  style="overflow:visible;"/>
			</clipPath>
			<path class="st9" d="M-173.9,263.7c0.8,5.3-17.3,12.3-40.4,15.7c-23.1,3.3-42.4,1.8-43.2-3.5c-0.8-5.3,62,48.2,85.1,44.8
				C-149.3,317.3-174.6,258.4-173.9,263.7z"/>
		</g>
	</g>
	<g class="st8">
		<g>
			<defs>
				<circle id="SVGID_3_" cx="-356" cy="272" r="50"/>
			</defs>
			<clipPath id="SVGID_4_">
				<use xlink:href="#SVGID_3_"  style="overflow:visible;"/>
			</clipPath>
			<path class="st10" d="M-411.8,283.7c4.1,0.1,6-1.5,8.5-4.6c1.6-2,3.4-3.9,4.9-5.9c1.5-2.1,2.2-4.5,3.6-6.6c0.9-1.3,2.2-2.3,3-3.7
				c0.9-1.4,1.4-2.9,2.3-4.3c2.1-3.2,5.5-6.1,8.9-7.6c3.2-1.3,6.5-2.3,9.8-3.6c2.5-1,5.1-1.3,7.3-2.9c2.4-1.7,3.8-3.3,6.9-3.8
				c3.9-0.6,7.3-1,11.2-0.2c6.1,1.2,11.8,2,17.9,1.1c5.2-0.8,10,1.3,15.1,1.7c6.5,0.6,13.3-0.3,19.8-1.2c3.8-0.5,7.3,0.7,10.8,2.2
				c2.6,1.1,6.1,2.5,6.9,5.6c1.1,3.9-1.8,8.6-4.6,11c-2.1,1.8-5.1,2.7-7.6,3.6c-3.3,1.3-6.8,2.4-10.2,3.5c-6.4,2-14,1.7-19.9,5.1
				c-4.1,2.3-7.2,6-11.3,8.3c-4.6,2.6-10.6,2.9-15.7,1.7c-5.4-1.3-11.8-0.8-17.4-0.5c-2.2,0.1-4.6,0.2-6.5,1.5
				c-1.5,1-1.4,2.4-2.4,3.7c-4.1,5.6-13,4.8-18.9,4.8c-3.3,0-5.6-0.3-8.1,2c-2,1.9-4,4.2-6.5,5.4c-1,0.5-2.2,0.7-3.2,1.1
				c-1.1,0.5-2.3,1.8-3.5,2c-2.2,0.4-4-2-4.4-3.8c-0.7-3.3,1.6-6.8,2.1-10.1c0.1-1,0.7-2.4,0.3-3.3c-0.3-0.8-1.5-0.4-1.3-1.6"/>
		</g>
	</g>
	<path class="st11" d="M-353.7,253.1L-353.7,253.1c-2,0-3.6-1.6-3.6-3.6l0,0c0-0.3-0.3-0.6-0.6-0.6h-0.1c-0.3,0-0.6,0.3-0.6,0.6l0,0
		c0,2-1.6,3.6-3.6,3.6l0,0c-0.3,0-0.6,0.3-0.6,0.6v0.1c0,0.3,0.3,0.6,0.6,0.6l0,0c2,0,3.6,1.6,3.6,3.6l0,0c0,0.3,0.3,0.6,0.6,0.6
		h0.1c0.3,0,0.6-0.3,0.6-0.6l0,0c0-2,1.6-3.6,3.6-3.6l0,0c0.3,0,0.6-0.3,0.6-0.6v-0.1C-353.1,253.3-353.4,253.1-353.7,253.1z"/>
	<path class="st11" d="M-377.6,283.9L-377.6,283.9c-2,0-3.6-1.6-3.6-3.6l0,0c0-0.3-0.3-0.6-0.6-0.6h-0.1c-0.3,0-0.6,0.3-0.6,0.6l0,0
		c0,2-1.6,3.6-3.6,3.6l0,0c-0.3,0-0.6,0.3-0.6,0.6v0.1c0,0.3,0.3,0.6,0.6,0.6l0,0c2,0,3.6,1.6,3.6,3.6l0,0c0,0.3,0.3,0.6,0.6,0.6
		h0.1c0.3,0,0.6-0.3,0.6-0.6l0,0c0-2,1.6-3.6,3.6-3.6l0,0c0.3,0,0.6-0.3,0.6-0.6v-0.1C-377,284.2-377.3,283.9-377.6,283.9z"/>
	<path class="st11" d="M-372.6,262L-372.6,262c-2,0.7-4.2-0.3-5-2.3l0,0c-0.1-0.3-0.5-0.5-0.8-0.4h-0.1c-0.3,0.1-0.5,0.5-0.4,0.8
		l0,0c0.7,2-0.3,4.2-2.3,5l0,0c-0.3,0.1-0.5,0.5-0.4,0.8v0.1c0.1,0.3,0.5,0.5,0.8,0.4l0,0c2-0.7,4.2,0.3,5,2.3l0,0
		c0.1,0.3,0.5,0.5,0.8,0.4h0.1c0.3-0.1,0.5-0.5,0.4-0.8l0,0c-0.7-2,0.3-4.2,2.3-5l0,0c0.3-0.1,0.5-0.5,0.4-0.8v-0.1
		C-371.9,262.1-372.3,261.9-372.6,262z"/>
	<path class="st11" d="M-351.5,272.5L-351.5,272.5c-3.2-1.3-4.7-5-3.4-8.2l0,0c0.2-0.5,0-1.1-0.5-1.3l-0.2-0.1
		c-0.5-0.2-1.1,0-1.3,0.5l0,0c-1.3,3.2-5,4.7-8.2,3.4l0,0c-0.5-0.2-1.1,0-1.3,0.5l-0.1,0.2c-0.2,0.5,0,1.1,0.5,1.3l0,0
		c3.2,1.3,4.7,5,3.4,8.2l0,0c-0.2,0.5,0,1.1,0.5,1.3l0.2,0.1c0.5,0.2,1.1,0,1.3-0.5l0,0c1.3-3.2,5-4.7,8.2-3.4l0,0
		c0.5,0.2,1.1,0,1.3-0.5l0.1-0.2C-350.8,273.3-351,272.7-351.5,272.5z"/>
	<g class="st8">
		<path class="st2" d="M-356,224.5c26.2,0,47.5,21.3,47.5,47.5s-21.3,47.5-47.5,47.5s-47.5-21.3-47.5-47.5S-382.2,224.5-356,224.5
			 M-356,222c-27.6,0-50,22.4-50,50s22.4,50,50,50s50-22.4,50-50S-328.4,222-356,222L-356,222z"/>
	</g>
	<path class="st11" d="M-332,261.3L-332,261.3c-1.1,0.6-2.6,0.2-3.2-1l0,0c-0.1-0.2-0.3-0.3-0.5-0.2h-0.1c-0.2,0.1-0.3,0.3-0.2,0.5
		l0,0c0.6,1.1,0.2,2.6-1,3.2l0,0c-0.2,0.1-0.3,0.3-0.2,0.5v0.1c0.1,0.2,0.3,0.3,0.5,0.2l0,0c1.1-0.6,2.6-0.2,3.2,1l0,0
		c0.1,0.2,0.3,0.3,0.5,0.2h0.1c0.2-0.1,0.3-0.3,0.2-0.5l0,0c-0.6-1.1-0.2-2.6,1-3.2l0,0c0.2-0.1,0.3-0.3,0.2-0.5v-0.1
		C-331.6,261.3-331.8,261.2-332,261.3z"/>
	<path class="st11" d="M-337,273.7L-337,273.7c-0.4,1.2-1.8,1.8-3,1.4l0,0c-0.2-0.1-0.4,0-0.5,0.2v0.1c-0.1,0.2,0,0.4,0.2,0.5l0,0
		c1.2,0.4,1.8,1.8,1.4,3l0,0c-0.1,0.2,0,0.4,0.2,0.5h0.1c0.2,0.1,0.4,0,0.5-0.2l0,0c0.4-1.2,1.8-1.8,3-1.4l0,0
		c0.2,0.1,0.4,0,0.5-0.2v-0.1c0.1-0.2,0-0.4-0.2-0.5l0,0c-1.2-0.4-1.8-1.8-1.4-3l0,0c0.1-0.2,0-0.4-0.2-0.5h-0.1
		C-336.7,273.4-336.9,273.5-337,273.7z"/>
	<path class="st11" d="M-336.5,252.6L-336.5,252.6c-1.2-0.4-2-1.7-1.6-2.9l0,0c0.1-0.2-0.1-0.4-0.3-0.5h-0.1
		c-0.2-0.1-0.4,0.1-0.5,0.3l0,0c-0.4,1.2-1.7,2-2.9,1.6l0,0c-0.2-0.1-0.4,0.1-0.5,0.3v0.1c-0.1,0.2,0.1,0.4,0.3,0.5l0,0
		c1.2,0.4,2,1.7,1.6,2.9l0,0c-0.1,0.2,0.1,0.4,0.3,0.5h0.1c0.2,0.1,0.4-0.1,0.5-0.3l0,0c0.4-1.2,1.7-2,2.9-1.6l0,0
		c0.2,0.1,0.4-0.1,0.5-0.3v-0.1C-336.1,252.9-336.3,252.7-336.5,252.6z"/>
	<path class="st11" d="M-327.4,255L-327.4,255c-0.7,0.2-1.3-0.2-1.5-0.8l0,0c0-0.1-0.1-0.2-0.2-0.1l0,0c-0.1,0-0.2,0.1-0.1,0.2l0,0
		c0.2,0.7-0.2,1.3-0.8,1.5l0,0c-0.1,0-0.2,0.1-0.1,0.2l0,0c0,0.1,0.1,0.2,0.2,0.1l0,0c0.7-0.2,1.3,0.2,1.5,0.8l0,0
		c0,0.1,0.1,0.2,0.2,0.1l0,0c0.1,0,0.2-0.1,0.1-0.2l0,0c-0.2-0.7,0.2-1.3,0.8-1.5l0,0c0.1,0,0.2-0.1,0.1-0.2l0,0
		C-327.2,255.1-327.3,255-327.4,255z"/>
	<path class="st12" d="M-313.1,260.2L-313.1,260.2c-0.7,0.2-1.3-0.2-1.5-0.9l0,0c0-0.1-0.1-0.2-0.2-0.1l0,0c-0.1,0-0.2,0.1-0.1,0.2
		l0,0c0.2,0.7-0.2,1.3-0.9,1.5l0,0c-0.1,0-0.2,0.1-0.1,0.2l0,0c0,0.1,0.1,0.2,0.2,0.1l0,0c0.7-0.2,1.3,0.2,1.5,0.9l0,0
		c0,0.1,0.1,0.2,0.2,0.1l0,0c0.1,0,0.2-0.1,0.1-0.2l0,0c-0.2-0.7,0.2-1.3,0.9-1.5l0,0c0.1,0,0.2-0.1,0.1-0.2l0,0
		C-312.8,260.3-313,260.2-313.1,260.2z"/>
	<path class="st11" d="M-315.1,253.3L-315.1,253.3c-0.6-0.3-0.8-1.1-0.5-1.7l0,0c0.1-0.1,0-0.2-0.1-0.3l0,0c-0.1-0.1-0.2,0-0.3,0.1
		l0,0c-0.3,0.6-1.1,0.8-1.7,0.5l0,0c-0.1-0.1-0.2,0-0.3,0.1l0,0c-0.1,0.1,0,0.2,0.1,0.3l0,0c0.6,0.3,0.8,1.1,0.5,1.7l0,0
		c-0.1,0.1,0,0.2,0.1,0.3l0,0c0.1,0.1,0.2,0,0.3-0.1l0,0c0.3-0.6,1.1-0.8,1.7-0.5l0,0c0.1,0.1,0.2,0,0.3-0.1l0,0
		C-315,253.5-315,253.3-315.1,253.3z"/>
	<path class="st11" d="M-374.1,275.3L-374.1,275.3c0.5,0.5,0.5,1.3,0,1.7l0,0c-0.1,0.1-0.1,0.2,0,0.3l0,0c0.1,0.1,0.2,0.1,0.3,0l0,0
		c0.5-0.5,1.3-0.5,1.7,0l0,0c0.1,0.1,0.2,0.1,0.3,0l0,0c0.1-0.1,0.1-0.2,0-0.3l0,0c-0.5-0.5-0.5-1.3,0-1.7l0,0
		c0.1-0.1,0.1-0.2,0-0.3l0,0c-0.1-0.1-0.2-0.1-0.3,0l0,0c-0.5,0.5-1.3,0.5-1.7,0l0,0c-0.1-0.1-0.2-0.1-0.3,0l0,0
		C-374.2,275.1-374.2,275.2-374.1,275.3z"/>
	<path class="st12" d="M-386.8,264L-386.8,264c0,0.7-0.5,1.2-1.2,1.2l0,0c-0.1,0-0.2,0.1-0.2,0.2l0,0c0,0.1,0.1,0.2,0.2,0.2l0,0
		c0.7,0,1.2,0.5,1.2,1.2l0,0c0,0.1,0.1,0.2,0.2,0.2l0,0c0.1,0,0.2-0.1,0.2-0.2l0,0c0-0.7,0.5-1.2,1.2-1.2l0,0c0.1,0,0.2-0.1,0.2-0.2
		l0,0c0-0.1-0.1-0.2-0.2-0.2l0,0c-0.7,0-1.2-0.5-1.2-1.2l0,0c0-0.1-0.1-0.2-0.2-0.2l0,0C-386.7,263.8-386.8,263.9-386.8,264z"/>
	<path class="st11" d="M-345.6,262.6L-345.6,262.6c-0.4,0.6-1.1,0.8-1.7,0.4l0,0c-0.1-0.1-0.2,0-0.3,0.1l0,0c-0.1,0.1,0,0.2,0.1,0.3
		l0,0c0.6,0.4,0.8,1.1,0.4,1.7l0,0c-0.1,0.1,0,0.2,0.1,0.3l0,0c0.1,0.1,0.2,0,0.3-0.1l0,0c0.4-0.6,1.1-0.8,1.7-0.4l0,0
		c0.1,0.1,0.2,0,0.3-0.1l0,0c0.1-0.1,0-0.2-0.1-0.3l0,0c-0.6-0.4-0.8-1.1-0.4-1.7l0,0c0.1-0.1,0-0.2-0.1-0.3l0,0
		C-345.5,262.5-345.6,262.5-345.6,262.6z"/>
	<path class="st12" d="M-327,272.2L-327,272.2c-0.7,0.2-1.3-0.3-1.5-0.9l0,0c0-0.1-0.1-0.2-0.2-0.1l0,0c-0.1,0-0.2,0.1-0.1,0.2l0,0
		c0.2,0.7-0.3,1.3-0.9,1.5l0,0c-0.1,0-0.2,0.1-0.1,0.2l0,0c0,0.1,0.1,0.2,0.2,0.1l0,0c0.7-0.2,1.3,0.3,1.5,0.9l0,0
		c0,0.1,0.1,0.2,0.2,0.1l0,0c0.1,0,0.2-0.1,0.1-0.2l0,0c-0.2-0.7,0.3-1.3,0.9-1.5l0,0c0.1,0,0.2-0.1,0.1-0.2l0,0
		C-326.8,272.2-326.9,272.2-327,272.2z"/>
	<path class="st12" d="M-350,244.6L-350,244.6c0.2,0.7-0.2,1.3-0.8,1.5l0,0c-0.1,0-0.2,0.1-0.1,0.2l0,0c0,0.1,0.1,0.2,0.2,0.1l0,0
		c0.7-0.2,1.3,0.2,1.5,0.8l0,0c0,0.1,0.1,0.2,0.2,0.1l0,0c0.1,0,0.2-0.1,0.1-0.2l0,0c-0.2-0.7,0.2-1.3,0.8-1.5l0,0
		c0.1,0,0.2-0.1,0.1-0.2l0,0c0-0.1-0.1-0.2-0.2-0.1l0,0c-0.7,0.2-1.3-0.2-1.5-0.8l0,0c0-0.1-0.1-0.2-0.2-0.1l0,0
		C-349.9,244.4-350,244.5-350,244.6z"/>
	<path class="st11" d="M-371.6,254.4L-371.6,254.4c0.2,0.7-0.2,1.3-0.8,1.5l0,0c-0.1,0-0.2,0.1-0.1,0.2l0,0c0,0.1,0.1,0.2,0.2,0.1
		l0,0c0.7-0.2,1.3,0.2,1.5,0.8l0,0c0,0.1,0.1,0.2,0.2,0.1l0,0c0.1,0,0.2-0.1,0.1-0.2l0,0c-0.2-0.7,0.2-1.3,0.8-1.5l0,0
		c0.1,0,0.2-0.1,0.1-0.2l0,0c0-0.1-0.1-0.2-0.2-0.1l0,0c-0.7,0.2-1.3-0.2-1.5-0.8l0,0c0-0.1-0.1-0.2-0.2-0.1l0,0
		C-371.5,254.2-371.6,254.3-371.6,254.4z"/>
	<path class="st11" d="M-387,271L-387,271c-1,0.9-2.6,0.8-3.5-0.2l0,0c-0.1-0.2-0.4-0.2-0.6,0l0,0c-0.2,0.1-0.2,0.4,0,0.6l0,0
		c0.9,1,0.8,2.6-0.2,3.5l0,0c-0.2,0.1-0.2,0.4,0,0.6l0,0c0.1,0.2,0.4,0.2,0.6,0l0,0c1-0.9,2.6-0.8,3.5,0.2l0,0
		c0.1,0.2,0.4,0.2,0.6,0l0,0c0.2-0.1,0.2-0.4,0-0.6l0,0c-0.9-1-0.8-2.6,0.2-3.5l0,0c0.2-0.1,0.2-0.4,0-0.6l0,0
		C-386.5,270.9-386.8,270.9-387,271z"/>
	<path class="st11" d="M-396.5,279.7L-396.5,279.7c0.2,1-0.4,2-1.4,2.3l0,0c-0.2,0-0.3,0.2-0.2,0.4l0,0c0,0.2,0.2,0.3,0.4,0.2l0,0
		c1-0.2,2,0.4,2.3,1.4l0,0c0,0.2,0.2,0.3,0.4,0.2l0,0c0.2,0,0.3-0.2,0.2-0.4l0,0c-0.2-1,0.4-2,1.4-2.3l0,0c0.2,0,0.3-0.2,0.2-0.4
		l0,0c0-0.2-0.2-0.3-0.4-0.2l0,0c-1,0.2-2-0.4-2.3-1.4l0,0c0-0.2-0.2-0.3-0.4-0.2l0,0C-396.4,279.4-396.5,279.5-396.5,279.7z"/>
	<path class="st11" d="M-182.6,270.8L-182.6,270.8c-1.8,0.2-3.4-1-3.6-2.8l0,0c0-0.3-0.3-0.5-0.6-0.5h-0.1c-0.3,0-0.5,0.3-0.5,0.6
		l0,0c0.2,1.8-1,3.4-2.8,3.6l0,0c-0.3,0-0.5,0.3-0.5,0.6v0.1c0,0.3,0.3,0.5,0.6,0.5l0,0c1.8-0.2,3.4,1,3.6,2.8l0,0
		c0,0.3,0.3,0.5,0.6,0.5h0.1c0.3,0,0.5-0.3,0.5-0.6l0,0c-0.2-1.8,1-3.4,2.8-3.6l0,0c0.3,0,0.5-0.3,0.5-0.6v-0.1
		C-182.1,270.9-182.3,270.7-182.6,270.8z"/>
	<path class="st11" d="M-174.1,262.1L-174.1,262.1c-0.9-0.1-1.6-0.9-1.6-1.8l0,0c0-0.2-0.1-0.3-0.2-0.3l0,0c-0.2,0-0.3,0.1-0.3,0.2
		l0,0c-0.1,0.9-0.9,1.6-1.8,1.6l0,0c-0.2,0-0.3,0.1-0.3,0.2l0,0c0,0.2,0.1,0.3,0.2,0.3l0,0c0.9,0.1,1.6,0.9,1.6,1.8l0,0
		c0,0.2,0.1,0.3,0.2,0.3l0,0c0.2,0,0.3-0.1,0.3-0.2l0,0c0.1-0.9,0.9-1.6,1.8-1.6l0,0c0.2,0,0.3-0.1,0.3-0.2l0,0
		C-173.8,262.3-173.9,262.1-174.1,262.1z"/>
	<path class="st11" d="M-201,274L-201,274c-0.9-0.1-1.6-0.9-1.6-1.8l0,0c0-0.2-0.1-0.3-0.2-0.3l0,0c-0.2,0-0.3,0.1-0.3,0.2l0,0
		c-0.1,0.9-0.9,1.6-1.8,1.6l0,0c-0.2,0-0.3,0.1-0.3,0.2l0,0c0,0.2,0.1,0.3,0.2,0.3l0,0c0.9,0.1,1.6,0.9,1.6,1.8l0,0
		c0,0.2,0.1,0.3,0.2,0.3l0,0c0.2,0,0.3-0.1,0.3-0.2l0,0c0.1-0.9,0.9-1.6,1.8-1.6l0,0c0.2,0,0.3-0.1,0.3-0.2l0,0
		C-200.7,274.1-200.8,274-201,274z"/>
	<path class="st11" d="M-240.3,274.5L-240.3,274.5c-0.9-0.1-1.6-0.9-1.6-1.8l0,0c0-0.2-0.1-0.3-0.2-0.3l0,0c-0.2,0-0.3,0.1-0.3,0.2
		l0,0c-0.1,0.9-0.9,1.6-1.8,1.6l0,0c-0.2,0-0.3,0.1-0.3,0.2l0,0c0,0.2,0.1,0.3,0.2,0.3l0,0c0.9,0.1,1.6,0.9,1.6,1.8l0,0
		c0,0.2,0.1,0.3,0.2,0.3l0,0c0.2,0,0.3-0.1,0.3-0.2l0,0c0.1-0.9,0.9-1.6,1.8-1.6l0,0c0.2,0,0.3-0.1,0.3-0.2l0,0
		C-240,274.7-240.1,274.5-240.3,274.5z"/>
	<path class="st11" d="M-223.8,276.3L-223.8,276.3c-1.3-0.1-2.2-1.2-2.1-2.5l0,0c0-0.2-0.1-0.4-0.3-0.4h-0.1c-0.2,0-0.4,0.1-0.4,0.3
		l0,0c-0.1,1.3-1.2,2.2-2.5,2.1l0,0c-0.2,0-0.4,0.1-0.4,0.3v0.1c0,0.2,0.1,0.4,0.3,0.4l0,0c1.3,0.1,2.2,1.2,2.1,2.5l0,0
		c0,0.2,0.1,0.4,0.3,0.4h0.1c0.2,0,0.4-0.1,0.4-0.3l0,0c0.1-1.3,1.2-2.2,2.5-2.1l0,0c0.2,0,0.4-0.1,0.4-0.3v-0.1
		C-223.4,276.5-223.6,276.3-223.8,276.3z"/>
	<path class="st11" d="M-224.2,260.7L-224.2,260.7c-0.6,0-1-0.6-1-1.2l0,0c0-0.1-0.1-0.2-0.2-0.2l0,0c-0.1,0-0.2,0.1-0.2,0.2l0,0
		c0,0.6-0.6,1-1.2,1l0,0c-0.1,0-0.2,0.1-0.2,0.2l0,0c0,0.1,0.1,0.2,0.2,0.2l0,0c0.6,0,1,0.6,1,1.2l0,0c0,0.1,0.1,0.2,0.2,0.2l0,0
		c0.1,0,0.2-0.1,0.2-0.2l0,0c0-0.6,0.6-1,1.2-1l0,0c0.1,0,0.2-0.1,0.2-0.2l0,0C-224,260.8-224.1,260.7-224.2,260.7z"/>
	<path class="st11" d="M-208.4,260.5L-208.4,260.5c-0.4,0-0.8-0.4-0.7-0.9l0,0c0-0.1,0-0.1-0.1-0.1l0,0c-0.1,0-0.1,0-0.1,0.1l0,0
		c0,0.4-0.4,0.8-0.9,0.7l0,0c-0.1,0-0.1,0-0.1,0.1l0,0c0,0.1,0,0.1,0.1,0.1l0,0c0.4,0,0.8,0.4,0.7,0.9l0,0c0,0.1,0,0.1,0.1,0.1l0,0
		c0.1,0,0.1,0,0.1-0.1l0,0c0-0.4,0.4-0.8,0.9-0.7l0,0c0.1,0,0.1,0,0.1-0.1l0,0C-208.3,260.6-208.3,260.5-208.4,260.5z"/>
	<path class="st11" d="M-184.3,258.3L-184.3,258.3c-0.4,0-0.8-0.4-0.7-0.9l0,0c0-0.1,0-0.1-0.1-0.1l0,0c-0.1,0-0.1,0-0.1,0.1l0,0
		c0,0.4-0.4,0.8-0.9,0.7l0,0c-0.1,0-0.1,0-0.1,0.1l0,0c0,0.1,0,0.1,0.1,0.1l0,0c0.4,0,0.8,0.4,0.7,0.9l0,0c0,0.1,0,0.1,0.1,0.1l0,0
		c0.1,0,0.1,0,0.1-0.1l0,0c0-0.4,0.4-0.8,0.9-0.7l0,0c0.1,0,0.1,0,0.1-0.1l0,0C-184.2,258.4-184.2,258.4-184.3,258.3z"/>
	<path class="st11" d="M-188.9,264L-188.9,264c-0.4,0-0.8-0.4-0.7-0.9l0,0c0-0.1,0-0.1-0.1-0.1l0,0c-0.1,0-0.1,0-0.1,0.1l0,0
		c0,0.4-0.4,0.8-0.9,0.7l0,0c-0.1,0-0.1,0-0.1,0.1l0,0c0,0.1,0,0.1,0.1,0.1l0,0c0.4,0,0.8,0.4,0.7,0.9l0,0c0,0.1,0,0.1,0.1,0.1l0,0
		c0.1,0,0.1,0,0.1-0.1l0,0c0-0.4,0.4-0.8,0.9-0.7l0,0c0.1,0,0.1,0,0.1-0.1l0,0C-188.8,264-188.8,264-188.9,264z"/>
	<path class="st11" d="M-252.6,272.3L-252.6,272.3c-0.4,0-0.8-0.4-0.7-0.9l0,0c0-0.1,0-0.1-0.1-0.1l0,0c-0.1,0-0.1,0-0.1,0.1l0,0
		c0,0.4-0.4,0.8-0.9,0.7l0,0c-0.1,0-0.1,0-0.1,0.1l0,0c0,0.1,0,0.1,0.1,0.1l0,0c0.4,0,0.8,0.4,0.7,0.9l0,0c0,0.1,0,0.1,0.1,0.1l0,0
		c0.1,0,0.1,0,0.1-0.1l0,0c0-0.4,0.4-0.8,0.9-0.7l0,0c0.1,0,0.1,0,0.1-0.1l0,0C-252.5,272.4-252.5,272.3-252.6,272.3z"/>
	<path class="st11" d="M-230.6,263.9L-230.6,263.9c-0.4,0-0.8-0.4-0.7-0.9l0,0c0-0.1,0-0.1-0.1-0.1l0,0c-0.1,0-0.1,0-0.1,0.1l0,0
		c0,0.4-0.4,0.8-0.9,0.7l0,0c-0.1,0-0.1,0-0.1,0.1l0,0c0,0.1,0,0.1,0.1,0.1l0,0c0.4,0,0.8,0.4,0.7,0.9l0,0c0,0.1,0,0.1,0.1,0.1l0,0
		c0.1,0,0.1,0,0.1-0.1l0,0c0-0.4,0.4-0.8,0.9-0.7l0,0c0.1,0,0.1,0,0.1-0.1l0,0C-230.5,264-230.5,263.9-230.6,263.9z"/>
	<path class="st11" d="M-192,259.7L-192,259.7c-0.4,0-0.8-0.4-0.7-0.9l0,0c0-0.1,0-0.1-0.1-0.1l0,0c-0.1,0-0.1,0-0.1,0.1l0,0
		c0,0.4-0.4,0.8-0.9,0.7l0,0c-0.1,0-0.1,0-0.1,0.1l0,0c0,0.1,0,0.1,0.1,0.1l0,0c0.4,0,0.8,0.4,0.7,0.9l0,0c0,0.1,0,0.1,0.1,0.1l0,0
		c0.1,0,0.1,0,0.1-0.1l0,0c0-0.4,0.4-0.8,0.9-0.7l0,0c0.1,0,0.1,0,0.1-0.1l0,0C-191.9,259.8-192,259.7-192,259.7z"/>
	<path class="st11" d="M-197.8,267.2L-197.8,267.2c-0.6,0-1.1-0.6-1-1.2l0,0c0-0.1-0.1-0.2-0.2-0.2l0,0c-0.1,0-0.2,0.1-0.2,0.2l0,0
		c0,0.6-0.6,1.1-1.2,1l0,0c-0.1,0-0.2,0.1-0.2,0.2l0,0c0,0.1,0.1,0.2,0.2,0.2l0,0c0.6,0,1.1,0.6,1,1.2l0,0c0,0.1,0.1,0.2,0.2,0.2
		l0,0c0.1,0,0.2-0.1,0.2-0.2l0,0c0-0.6,0.6-1.1,1.2-1l0,0c0.1,0,0.2-0.1,0.2-0.2l0,0C-197.6,267.3-197.7,267.3-197.8,267.2z"/>
	<path class="st11" d="M-234.5,281.2L-234.5,281.2c-0.6-0.7-0.5-1.8,0.2-2.4l0,0c0.1-0.1,0.1-0.3,0-0.4l0,0c-0.1-0.1-0.3-0.1-0.4,0
		l0,0c-0.7,0.6-1.8,0.5-2.4-0.2l0,0c-0.1-0.1-0.3-0.1-0.4,0l0,0c-0.1,0.1-0.1,0.3,0,0.4l0,0c0.6,0.7,0.5,1.8-0.2,2.4l0,0
		c-0.1,0.1-0.1,0.3,0,0.4l0,0c0.1,0.1,0.3,0.1,0.4,0l0,0c0.7-0.6,1.8-0.5,2.4,0.2l0,0c0.1,0.1,0.3,0.1,0.4,0l0,0
		C-234.4,281.5-234.4,281.3-234.5,281.2z"/>
	<path class="st11" d="M-236,266.1L-236,266.1c0.4,0.9,0,1.9-0.9,2.2l0,0c-0.1,0.1-0.2,0.2-0.1,0.4l0,0c0.1,0.1,0.2,0.2,0.4,0.1l0,0
		c0.9-0.4,1.9,0,2.2,0.9l0,0c0.1,0.1,0.2,0.2,0.4,0.1l0,0c0.1-0.1,0.2-0.2,0.1-0.4l0,0c-0.4-0.9,0-1.9,0.9-2.2l0,0
		c0.1-0.1,0.2-0.2,0.1-0.4l0,0c-0.1-0.1-0.2-0.2-0.4-0.1l0,0c-0.9,0.4-1.9,0-2.2-0.9l0,0c-0.1-0.1-0.2-0.2-0.4-0.1l0,0
		C-236,265.8-236.1,266-236,266.1z"/>
	<path class="st11" d="M-201.9,259.9L-201.9,259.9c-0.7,0.6-1.8,0.4-2.4-0.3l0,0c-0.1-0.1-0.3-0.1-0.4-0.1l0,0
		c-0.1,0.1-0.1,0.3-0.1,0.4l0,0c0.6,0.7,0.4,1.8-0.3,2.4l0,0c-0.1,0.1-0.1,0.3-0.1,0.4l0,0c0.1,0.1,0.3,0.1,0.4,0.1l0,0
		c0.7-0.6,1.8-0.4,2.4,0.3l0,0c0.1,0.1,0.3,0.1,0.4,0.1l0,0c0.1-0.1,0.1-0.3,0.1-0.4l0,0c-0.6-0.7-0.4-1.8,0.3-2.4l0,0
		c0.1-0.1,0.1-0.3,0.1-0.4l0,0C-201.6,259.8-201.8,259.8-201.9,259.9z"/>
	<path class="st11" d="M-321.5,263.8L-321.5,263.8c-0.5,0.9-1.7,1.2-2.6,0.7l0,0c-0.1-0.1-0.3,0-0.4,0.1l0,0c-0.1,0.1,0,0.3,0.1,0.4
		l0,0c0.9,0.5,1.2,1.7,0.7,2.6l0,0c-0.1,0.1,0,0.3,0.1,0.4l0,0c0.1,0.1,0.3,0,0.4-0.1l0,0c0.5-0.9,1.7-1.2,2.6-0.7l0,0
		c0.1,0.1,0.3,0,0.4-0.1l0,0c0.1-0.1,0-0.3-0.1-0.4l0,0c-0.9-0.5-1.2-1.7-0.7-2.6l0,0c0.1-0.1,0-0.3-0.1-0.4l0,0
		C-321.2,263.6-321.4,263.7-321.5,263.8z"/>
	<path class="st13" d="M-346.5,295.3L-346.5,295.3c-1.1,0.6-2.6,0.2-3.2-1l0,0c-0.1-0.2-0.3-0.3-0.5-0.2h-0.1
		c-0.2,0.1-0.3,0.3-0.2,0.5l0,0c0.6,1.1,0.2,2.6-1,3.2l0,0c-0.2,0.1-0.3,0.3-0.2,0.5v0.1c0.1,0.2,0.3,0.3,0.5,0.2l0,0
		c1.1-0.6,2.6-0.2,3.2,1l0,0c0.1,0.2,0.3,0.3,0.5,0.2h0.1c0.2-0.1,0.3-0.3,0.2-0.5l0,0c-0.6-1.1-0.2-2.6,1-3.2l0,0
		c0.2-0.1,0.3-0.3,0.2-0.5v-0.1C-346.1,295.3-346.3,295.2-346.5,295.3z"/>
	<path class="st13" d="M-356.3,306L-356.3,306c-0.4,1.2-1.8,1.8-3,1.4l0,0c-0.2-0.1-0.4,0-0.5,0.2v0.1c-0.1,0.2,0,0.4,0.2,0.5l0,0
		c1.2,0.4,1.8,1.8,1.4,3l0,0c-0.1,0.2,0,0.4,0.2,0.5h0.1c0.2,0.1,0.4,0,0.5-0.2l0,0c0.4-1.2,1.8-1.8,3-1.4l0,0
		c0.2,0.1,0.4,0,0.5-0.2v-0.1c0.1-0.2,0-0.4-0.2-0.5l0,0c-1.2-0.4-1.8-1.8-1.4-3l0,0c0.1-0.2,0-0.4-0.2-0.5h-0.1
		C-356,305.7-356.2,305.8-356.3,306z"/>
	<path class="st13" d="M-371.3,304L-371.3,304c-1.2-0.4-2-1.7-1.6-2.9l0,0c0.1-0.2-0.1-0.4-0.3-0.5h-0.1c-0.2-0.1-0.4,0.1-0.5,0.3
		l0,0c-0.4,1.2-1.7,2-2.9,1.6l0,0c-0.2-0.1-0.4,0.1-0.5,0.3v0.1c-0.1,0.2,0.1,0.4,0.3,0.5l0,0c1.2,0.4,2,1.7,1.6,2.9l0,0
		c-0.1,0.2,0.1,0.4,0.3,0.5h0.1c0.2,0.1,0.4-0.1,0.5-0.3l0,0c0.4-1.2,1.7-2,2.9-1.6l0,0c0.2,0.1,0.4-0.1,0.5-0.3v-0.1
		C-371,304.3-371.1,304.1-371.3,304z"/>
	<path class="st13" d="M-359.3,290.4L-359.3,290.4c-0.7,0.2-1.3-0.2-1.5-0.8l0,0c0-0.1-0.1-0.2-0.2-0.1l0,0c-0.1,0-0.2,0.1-0.1,0.2
		l0,0c0.2,0.7-0.2,1.3-0.8,1.5l0,0c-0.1,0-0.2,0.1-0.1,0.2l0,0c0,0.1,0.1,0.2,0.2,0.1l0,0c0.7-0.2,1.3,0.2,1.5,0.8l0,0
		c0,0.1,0.1,0.2,0.2,0.1l0,0c0.1,0,0.2-0.1,0.1-0.2l0,0c-0.2-0.7,0.2-1.3,0.8-1.5l0,0c0.1,0,0.2-0.1,0.1-0.2l0,0
		C-359.1,290.5-359.2,290.4-359.3,290.4z"/>
	<path class="st13" d="M-317.6,285.3L-317.6,285.3c-0.6-0.3-0.8-1.1-0.5-1.7l0,0c0.1-0.1,0-0.2-0.1-0.3l0,0c-0.1-0.1-0.2,0-0.3,0.1
		l0,0c-0.3,0.6-1.1,0.8-1.7,0.5l0,0c-0.1-0.1-0.2,0-0.3,0.1l0,0c-0.1,0.1,0,0.2,0.1,0.3l0,0c0.6,0.3,0.8,1.1,0.5,1.7l0,0
		c-0.1,0.1,0,0.2,0.1,0.3l0,0c0.1,0.1,0.2,0,0.3-0.1l0,0c0.3-0.6,1.1-0.8,1.7-0.5l0,0c0.1,0.1,0.2,0,0.3-0.1l0,0
		C-317.5,285.5-317.5,285.3-317.6,285.3z"/>
	<path class="st13" d="M-342,305.5L-342,305.5c-0.7,0.2-1.3-0.3-1.5-0.9l0,0c0-0.1-0.1-0.2-0.2-0.1l0,0c-0.1,0-0.2,0.1-0.1,0.2l0,0
		c0.2,0.7-0.3,1.3-0.9,1.5l0,0c-0.1,0-0.2,0.1-0.1,0.2l0,0c0,0.1,0.1,0.2,0.2,0.1l0,0c0.7-0.2,1.3,0.3,1.5,0.9l0,0
		c0,0.1,0.1,0.2,0.2,0.1l0,0c0.1,0,0.2-0.1,0.1-0.2l0,0c-0.2-0.7,0.3-1.3,0.9-1.5l0,0c0.1,0,0.2-0.1,0.1-0.2l0,0
		C-341.8,305.5-341.9,305.4-342,305.5z"/>
	<path class="st13" d="M-328.1,297L-328.1,297c-0.5,0.9-1.7,1.2-2.6,0.7l0,0c-0.1-0.1-0.3,0-0.4,0.1l0,0c-0.1,0.1,0,0.3,0.1,0.4l0,0
		c0.9,0.5,1.2,1.7,0.7,2.6l0,0c-0.1,0.1,0,0.3,0.1,0.4l0,0c0.1,0.1,0.3,0,0.4-0.1l0,0c0.5-0.9,1.7-1.2,2.6-0.7l0,0
		c0.1,0.1,0.3,0,0.4-0.1l0,0c0.1-0.1,0-0.3-0.1-0.4l0,0c-0.9-0.5-1.2-1.7-0.7-2.6l0,0c0.1-0.1,0-0.3-0.1-0.4l0,0
		C-327.8,296.8-328,296.8-328.1,297z"/>
	<path class="st13" d="M-223.3,238.3L-223.3,238.3c-1.1,0.6-2.6,0.2-3.2-1l0,0c-0.1-0.2-0.3-0.3-0.5-0.2h-0.1
		c-0.2,0.1-0.3,0.3-0.2,0.5l0,0c0.6,1.1,0.2,2.6-1,3.2l0,0c-0.2,0.1-0.3,0.3-0.2,0.5v0.1c0.1,0.2,0.3,0.3,0.5,0.2l0,0
		c1.1-0.6,2.6-0.2,3.2,1l0,0c0.1,0.2,0.3,0.3,0.5,0.2h0.1c0.2-0.1,0.3-0.3,0.2-0.5l0,0c-0.6-1.1-0.2-2.6,1-3.2l0,0
		c0.2-0.1,0.3-0.3,0.2-0.5v-0.1C-222.9,238.3-223.1,238.2-223.3,238.3z"/>
	<path class="st13" d="M-233,249L-233,249c-0.4,1.2-1.8,1.8-3,1.4l0,0c-0.2-0.1-0.4,0-0.5,0.2v0.1c-0.1,0.2,0,0.4,0.2,0.5l0,0
		c1.2,0.4,1.8,1.8,1.4,3l0,0c-0.1,0.2,0,0.4,0.2,0.5h0.1c0.2,0.1,0.4,0,0.5-0.2l0,0c0.4-1.2,1.8-1.8,3-1.4l0,0
		c0.2,0.1,0.4,0,0.5-0.2v-0.1c0.1-0.2,0-0.4-0.2-0.5l0,0c-1.2-0.4-1.8-1.8-1.4-3l0,0c0.1-0.2,0-0.4-0.2-0.5h-0.1
		C-232.7,248.7-232.9,248.8-233,249z"/>
	<path class="st13" d="M-236.1,233.4L-236.1,233.4c-0.7,0.2-1.3-0.2-1.5-0.8l0,0c0-0.1-0.1-0.2-0.2-0.1l0,0c-0.1,0-0.2,0.1-0.1,0.2
		l0,0c0.2,0.7-0.2,1.3-0.8,1.5l0,0c-0.1,0-0.2,0.1-0.1,0.2l0,0c0,0.1,0.1,0.2,0.2,0.1l0,0c0.7-0.2,1.3,0.2,1.5,0.8l0,0
		c0,0.1,0.1,0.2,0.2,0.1l0,0c0.1,0,0.2-0.1,0.1-0.2l0,0c-0.2-0.7,0.2-1.3,0.8-1.5l0,0c0.1,0,0.2-0.1,0.1-0.2l0,0
		C-235.8,233.5-236,233.4-236.1,233.4z"/>
	<path class="st13" d="M-218.8,248.5L-218.8,248.5c-0.7,0.2-1.3-0.3-1.5-0.9l0,0c0-0.1-0.1-0.2-0.2-0.1l0,0c-0.1,0-0.2,0.1-0.1,0.2
		l0,0c0.2,0.7-0.3,1.3-0.9,1.5l0,0c-0.1,0-0.2,0.1-0.1,0.2l0,0c0,0.1,0.1,0.2,0.2,0.1l0,0c0.7-0.2,1.3,0.3,1.5,0.9l0,0
		c0,0.1,0.1,0.2,0.2,0.1l0,0c0.1,0,0.2-0.1,0.1-0.2l0,0c-0.2-0.7,0.3-1.3,0.9-1.5l0,0c0.1,0,0.2-0.1,0.1-0.2l0,0
		C-218.6,248.5-218.7,248.4-218.8,248.5z"/>
	<path class="st13" d="M-204.8,240L-204.8,240c-0.5,0.9-1.7,1.2-2.6,0.7l0,0c-0.1-0.1-0.3,0-0.4,0.1l0,0c-0.1,0.1,0,0.3,0.1,0.4l0,0
		c0.9,0.5,1.2,1.7,0.7,2.6l0,0c-0.1,0.1,0,0.3,0.1,0.4l0,0c0.1,0.1,0.3,0,0.4-0.1l0,0c0.5-0.9,1.7-1.2,2.6-0.7l0,0
		c0.1,0.1,0.3,0,0.4-0.1l0,0c0.1-0.1,0-0.3-0.1-0.4l0,0c-0.9-0.5-1.2-1.7-0.7-2.6l0,0c0.1-0.1,0-0.3-0.1-0.4l0,0
		C-204.6,239.8-204.7,239.8-204.8,240z"/>
	<path class="st13" d="M-207.8,306.9L-207.8,306.9c1.3,0.1,2.3,1.2,2.2,2.5l0,0c0,0.2,0.2,0.4,0.4,0.4h0.1c0.2,0,0.4-0.2,0.4-0.4
		l0,0c0.1-1.3,1.2-2.3,2.5-2.2l0,0c0.2,0,0.4-0.2,0.4-0.4v-0.1c0-0.2-0.2-0.4-0.4-0.4l0,0c-1.3-0.1-2.3-1.2-2.2-2.5l0,0
		c0-0.2-0.2-0.4-0.4-0.4h-0.1c-0.2,0-0.4,0.2-0.4,0.4l0,0c-0.1,1.3-1.2,2.3-2.5,2.2l0,0c-0.2,0-0.4,0.2-0.4,0.4v0.1
		C-208.1,306.7-208,306.9-207.8,306.9z"/>
	<path class="st13" d="M-187.6,295.2L-187.6,295.2c1-0.8,2.5-0.7,3.3,0.3l0,0c0.1,0.2,0.4,0.2,0.5,0.1l0,0c0.2-0.1,0.2-0.4,0.1-0.5
		l0,0c-0.8-1-0.7-2.5,0.3-3.3l0,0c0.2-0.1,0.2-0.4,0.1-0.5l0,0c-0.1-0.2-0.4-0.2-0.5-0.1l0,0c-1,0.8-2.5,0.7-3.3-0.3l0,0
		c-0.1-0.2-0.4-0.2-0.5-0.1l0,0c-0.2,0.1-0.2,0.4-0.1,0.5l0,0c0.8,1,0.7,2.5-0.3,3.3l0,0c-0.2,0.1-0.2,0.4-0.1,0.5l0,0
		C-188,295.3-187.8,295.3-187.6,295.2z"/>
	<path class="st13" d="M-229.3,307.7L-229.3,307.7c0.7,0.2,1.1,0.8,0.9,1.5l0,0c0,0.1,0,0.2,0.1,0.2l0,0c0.1,0,0.2,0,0.2-0.1l0,0
		c0.2-0.7,0.8-1.1,1.5-0.9l0,0c0.1,0,0.2,0,0.2-0.1l0,0c0-0.1,0-0.2-0.1-0.2l0,0c-0.7-0.2-1.1-0.8-0.9-1.5l0,0c0-0.1,0-0.2-0.1-0.2
		l0,0c-0.1,0-0.2,0-0.2,0.1l0,0c-0.2,0.7-0.8,1.1-1.5,0.9l0,0c-0.1,0-0.2,0-0.2,0.1l0,0C-229.4,307.5-229.4,307.6-229.3,307.7z"/>
	<path class="st13" d="M-202.4,301.6L-202.4,301.6c0.6,0.2,1,0.9,0.8,1.5l0,0c0,0.1,0,0.2,0.1,0.2l0,0c0.1,0,0.2,0,0.2-0.1l0,0
		c0.2-0.6,0.9-1,1.5-0.8l0,0c0.1,0,0.2,0,0.2-0.1l0,0c0-0.1,0-0.2-0.1-0.2l0,0c-0.6-0.2-1-0.9-0.8-1.5l0,0c0-0.1,0-0.2-0.1-0.2l0,0
		c-0.1,0-0.2,0-0.2,0.1l0,0c-0.2,0.6-0.9,1-1.5,0.8l0,0c-0.1,0-0.2,0-0.2,0.1l0,0C-202.6,301.5-202.5,301.6-202.4,301.6z"/>
	<path class="st13" d="M-222.8,296.1L-222.8,296.1c0.9-0.5,2.1-0.2,2.6,0.7l0,0c0.1,0.1,0.3,0.2,0.4,0.1l0,0
		c0.1-0.1,0.2-0.3,0.1-0.4l0,0c-0.5-0.9-0.2-2.1,0.7-2.6l0,0c0.1-0.1,0.2-0.3,0.1-0.4l0,0c-0.1-0.1-0.3-0.2-0.4-0.1l0,0
		c-0.9,0.5-2.1,0.2-2.6-0.7l0,0c-0.1-0.1-0.3-0.2-0.4-0.1l0,0c-0.1,0.1-0.2,0.3-0.1,0.4l0,0c0.5,0.9,0.2,2.1-0.7,2.6l0,0
		c-0.1,0.1-0.2,0.3-0.1,0.4l0,0C-223.1,296.1-222.9,296.2-222.8,296.1z"/>
	<path class="st12" d="M-320.7,246.4L-320.7,246.4c-0.5,0.9-1.7,1.2-2.6,0.7l0,0c-0.1-0.1-0.3,0-0.4,0.1l0,0c-0.1,0.1,0,0.3,0.1,0.4
		l0,0c0.9,0.5,1.2,1.7,0.7,2.6l0,0c-0.1,0.1,0,0.3,0.1,0.4l0,0c0.1,0.1,0.3,0,0.4-0.1l0,0c0.5-0.9,1.7-1.2,2.6-0.7l0,0
		c0.1,0.1,0.3,0,0.4-0.1l0,0c0.1-0.1,0-0.3-0.1-0.4l0,0c-0.9-0.5-1.2-1.7-0.7-2.6l0,0c0.1-0.1,0-0.3-0.1-0.4l0,0
		C-320.4,246.2-320.6,246.2-320.7,246.4z"/>
	<path class="st12" d="M-397.7,288.2L-397.7,288.2c0.5,0.3,0.7,1,0.4,1.6l0,0c-0.1,0.1,0,0.2,0.1,0.3l0,0c0.1,0.1,0.2,0,0.3-0.1l0,0
		c0.3-0.5,1-0.7,1.6-0.4l0,0c0.1,0.1,0.2,0,0.3-0.1l0,0c0.1-0.1,0-0.2-0.1-0.3l0,0c-0.5-0.3-0.7-1-0.4-1.6l0,0
		c0.1-0.1,0-0.2-0.1-0.3l0,0c-0.1-0.1-0.2,0-0.3,0.1l0,0c-0.3,0.5-1,0.7-1.6,0.4l0,0c-0.1-0.1-0.2,0-0.3,0.1l0,0
		C-397.8,288-397.8,288.1-397.7,288.2z"/>
	<path class="st13" d="M-372.3,233.2L-372.3,233.2c1.1-0.6,2.6-0.2,3.2,1l0,0c0.1,0.2,0.3,0.3,0.5,0.2h0.1c0.2-0.1,0.3-0.3,0.2-0.5
		l0,0c-0.6-1.1-0.2-2.6,1-3.2l0,0c0.2-0.1,0.3-0.3,0.2-0.5v-0.1c-0.1-0.2-0.3-0.3-0.5-0.2l0,0c-1.1,0.6-2.6,0.2-3.2-1l0,0
		c-0.1-0.2-0.3-0.3-0.5-0.2h-0.1c-0.2,0.1-0.3,0.3-0.2,0.5l0,0c0.6,1.1,0.2,2.6-1,3.2l0,0c-0.2,0.1-0.3,0.3-0.2,0.5v0.1
		C-372.7,233.3-372.5,233.3-372.3,233.2z"/>
	<path class="st13" d="M-385.8,248.6L-385.8,248.6c0.4-1.2,1.8-1.8,3-1.4l0,0c0.2,0.1,0.4,0,0.5-0.2v-0.1c0.1-0.2,0-0.4-0.2-0.5l0,0
		c-1.2-0.4-1.8-1.8-1.4-3l0,0c0.1-0.2,0-0.4-0.2-0.5h-0.1c-0.2-0.1-0.4,0-0.5,0.2l0,0c-0.4,1.2-1.8,1.8-3,1.4l0,0
		c-0.2-0.1-0.4,0-0.5,0.2v0.1c-0.1,0.2,0,0.4,0.2,0.5l0,0c1.2,0.4,1.8,1.8,1.4,3l0,0c-0.1,0.2,0,0.4,0.2,0.5h0.1
		C-386.1,248.9-385.8,248.8-385.8,248.6z"/>
	<path class="st13" d="M-344.5,233L-344.5,233c1.2,0.4,2,1.7,1.6,2.9l0,0c-0.1,0.2,0.1,0.4,0.3,0.5h0.1c0.2,0.1,0.4-0.1,0.5-0.3l0,0
		c0.4-1.2,1.7-2,2.9-1.6l0,0c0.2,0.1,0.4-0.1,0.5-0.3v-0.1c0.1-0.2-0.1-0.4-0.3-0.5l0,0c-1.2-0.4-2-1.7-1.6-2.9l0,0
		c0.1-0.2-0.1-0.4-0.3-0.5h-0.1c-0.2-0.1-0.4,0.1-0.5,0.3l0,0c-0.4,1.2-1.7,2-2.9,1.6l0,0c-0.2-0.1-0.4,0.1-0.5,0.3v0.1
		C-344.8,232.8-344.7,233-344.5,233z"/>
	<path class="st13" d="M-360.5,235.4L-360.5,235.4c0.7-0.2,1.3,0.2,1.5,0.8l0,0c0,0.1,0.1,0.2,0.2,0.1l0,0c0.1,0,0.2-0.1,0.1-0.2
		l0,0c-0.2-0.7,0.2-1.3,0.8-1.5l0,0c0.1,0,0.2-0.1,0.1-0.2l0,0c0-0.1-0.1-0.2-0.2-0.1l0,0c-0.7,0.2-1.3-0.2-1.5-0.8l0,0
		c0-0.1-0.1-0.2-0.2-0.1l0,0c-0.1,0-0.2,0.1-0.1,0.2l0,0c0.2,0.7-0.2,1.3-0.8,1.5l0,0c-0.1,0-0.2,0.1-0.1,0.2l0,0
		C-360.7,235.3-360.6,235.4-360.5,235.4z"/>
	<path class="st13" d="M-399,260L-399,260c0.6,0.3,0.8,1.1,0.5,1.7l0,0c-0.1,0.1,0,0.2,0.1,0.3l0,0c0.1,0.1,0.2,0,0.3-0.1l0,0
		c0.3-0.6,1.1-0.8,1.7-0.5l0,0c0.1,0.1,0.2,0,0.3-0.1l0,0c0.1-0.1,0-0.2-0.1-0.3l0,0c-0.6-0.3-0.8-1.1-0.5-1.7l0,0
		c0.1-0.1,0-0.2-0.1-0.3l0,0c-0.1-0.1-0.2,0-0.3,0.1l0,0c-0.3,0.6-1.1,0.8-1.7,0.5l0,0c-0.1-0.1-0.2,0-0.3,0.1l0,0
		C-399.2,259.8-399.1,260-399,260z"/>
	<circle class="st14" cx="-216" cy="272" r="50"/>
	<g class="st8">
		<path class="st2" d="M-216,224.5c26.2,0,47.5,21.3,47.5,47.5s-21.3,47.5-47.5,47.5s-47.5-21.3-47.5-47.5S-242.2,224.5-216,224.5
			 M-216,222c-27.6,0-50,22.4-50,50s22.4,50,50,50s50-22.4,50-50S-188.4,222-216,222L-216,222z"/>
	</g>
	<path class="st15" d="M-216.3,468.5c3.2,8.4,20.3,9.7,38.2,2.9c17.9-6.8,29.9-19.2,26.7-27.6c-3.2-8.4-20.3-9.7-38.2-2.9
		C-207.5,447.7-219.5,460.1-216.3,468.5z"/>
	<ellipse class="st16" cx="-216.8" cy="393.6" rx="34.8" ry="16.8"/>
	<path class="st15" d="M-203.4,463.6c1.9,5.1,12.2,5.9,23,1.7s18-11.6,16.1-16.6c-1.9-5.1-12.2-5.9-23-1.7
		C-198.1,451.1-205.3,458.5-203.4,463.6z"/>
	<path class="st15" d="M-222.9,470.8c4,10.7,25.7,12.3,48.3,3.7s37.8-24.3,33.8-35s-25.7-12.3-48.3-3.7
		C-211.7,444.4-226.9,460.1-222.9,470.8z"/>
	<ellipse class="st17" cx="-184.3" cy="452.2" rx="10.7" ry="9.8"/>
	<circle class="st18" cx="-146.7" cy="432.8" r="4.7"/>
	<circle class="st18" cx="-154.7" cy="455.8" r="3.8"/>
	<circle class="st18" cx="-201.7" cy="456.8" r="2.9"/>
	<g class="st8">
		<g>
			<path id="SVGID_29_" class="st5" d="M-254.4,281.4c0.7,4.6,9.7,7.3,22.4,7.5c-14.1,0.2-24.4-2.6-25.1-7.5
				c-0.9-6.5,15.5-14.3,36.7-17.4c6.2-0.9,12-1.3,17.3-1.2c-4.5,0.1-9.5,0.5-14.6,1.2C-238.9,267.1-255.3,274.8-254.4,281.4z"/>
		</g>
		<g>
			<defs>
				<path id="SVGID_5_" d="M-252.3,286.8c1.4,4.5,10.6,5.8,23.2,4.2c-13.9,2.2-24.5,0.9-25.9-3.8c-1.8-6.3,13.3-16.4,33.8-22.5
					c6-1.8,11.7-3,16.9-3.7c-4.4,0.7-9.3,1.9-14.3,3.3C-239.1,270.5-254.2,280.4-252.3,286.8z"/>
			</defs>
			<clipPath id="SVGID_6_">
				<use xlink:href="#SVGID_5_"  style="overflow:visible;"/>
			</clipPath>
			
				<ellipse transform="matrix(-0.1435 -0.9896 0.9896 -0.1435 -513.6871 95.0587)" class="st19" cx="-215.7" cy="269.8" rx="9.7" ry="42.3"/>
		</g>
	</g>
	<g class="st8">
		<g>
			<path id="SVGID_31_" class="st5" d="M-207.9,264.1L-207.9,264.1c-4.3,0.5-8.1-2.6-8.6-6.9l0,0c-0.1-0.7-0.7-1.2-1.4-1.1h-0.2
				c-0.7,0.1-1.2,0.7-1.1,1.4l0,0c0.5,4.3-2.6,8.1-6.9,8.6l0,0c-0.7,0.1-1.2,0.7-1.1,1.4v0.2c0.1,0.7,0.7,1.2,1.4,1.1l0,0
				c4.3-0.5,8.1,2.6,8.6,6.9l0,0c0.1,0.7,0.7,1.2,1.4,1.1h0.2c0.7-0.1,1.2-0.7,1.1-1.4l0,0c-0.5-4.3,2.6-8.1,6.9-8.6l0,0
				c0.7-0.1,1.2-0.7,1.1-1.4v-0.2C-206.6,264.5-207.2,264-207.9,264.1z"/>
		</g>
		<g>
			<defs>
				<path id="SVGID_7_" d="M-207.9,264.1L-207.9,264.1c-4.3,0.5-8.1-2.6-8.6-6.9l0,0c-0.1-0.7-0.7-1.2-1.4-1.1h-0.2
					c-0.7,0.1-1.2,0.7-1.1,1.4l0,0c0.5,4.3-2.6,8.1-6.9,8.6l0,0c-0.7,0.1-1.2,0.7-1.1,1.4v0.2c0.1,0.7,0.7,1.2,1.4,1.1l0,0
					c4.3-0.5,8.1,2.6,8.6,6.9l0,0c0.1,0.7,0.7,1.2,1.4,1.1h0.2c0.7-0.1,1.2-0.7,1.1-1.4l0,0c-0.5-4.3,2.6-8.1,6.9-8.6l0,0
					c0.7-0.1,1.2-0.7,1.1-1.4v-0.2C-206.6,264.5-207.2,264-207.9,264.1z"/>
			</defs>
			<clipPath id="SVGID_8_">
				<use xlink:href="#SVGID_7_"  style="overflow:visible;"/>
			</clipPath>
			<path class="st20" d="M-214.6,268.5c-0.6,0.1-1.2,0.2-1.8,0.3c-1.3,0.2-2.7,0.4-3.9,0.5c-9.7,1-17.2,0.1-17.6-2.2
				c-0.4-2.6,6.6-12.4,18.1-14c11.5-1.7,23.1,5.4,23.5,8C-196,263.5-204,266.7-214.6,268.5z"/>
		</g>
	</g>
	
		<ellipse transform="matrix(-0.1435 -0.9896 0.9896 -0.1435 -353.6062 233.6058)" class="st7" cx="-75.7" cy="269.8" rx="9.7" ry="42.3"/>
	<path class="st11" d="M-34.1,262.1L-34.1,262.1c-0.9-0.1-1.6-0.9-1.6-1.8l0,0c0-0.2-0.1-0.3-0.2-0.3l0,0c-0.2,0-0.3,0.1-0.3,0.2
		l0,0c-0.1,0.9-0.9,1.6-1.8,1.6l0,0c-0.2,0-0.3,0.1-0.3,0.2l0,0c0,0.2,0.1,0.3,0.2,0.3l0,0c0.9,0.1,1.6,0.9,1.6,1.8l0,0
		c0,0.2,0.1,0.3,0.2,0.3l0,0c0.2,0,0.3-0.1,0.3-0.2l0,0c0.1-0.9,0.9-1.6,1.8-1.6l0,0c0.2,0,0.3-0.1,0.3-0.2l0,0
		C-33.8,262.3-33.9,262.1-34.1,262.1z"/>
	<path class="st11" d="M-61,274L-61,274c-0.9-0.1-1.6-0.9-1.6-1.8l0,0c0-0.2-0.1-0.3-0.2-0.3l0,0c-0.2,0-0.3,0.1-0.3,0.2l0,0
		c-0.1,0.9-0.9,1.6-1.8,1.6l0,0c-0.2,0-0.3,0.1-0.3,0.2l0,0c0,0.2,0.1,0.3,0.2,0.3l0,0c0.9,0.1,1.6,0.9,1.6,1.8l0,0
		c0,0.2,0.1,0.3,0.2,0.3l0,0c0.2,0,0.3-0.1,0.3-0.2l0,0c0.1-0.9,0.9-1.6,1.8-1.6l0,0c0.2,0,0.3-0.1,0.3-0.2l0,0
		C-60.7,274.1-60.8,274-61,274z"/>
	<path class="st11" d="M-83.8,276.3L-83.8,276.3c-1.3-0.1-2.2-1.2-2.1-2.5l0,0c0-0.2-0.1-0.4-0.3-0.4h-0.1c-0.2,0-0.4,0.1-0.4,0.3
		l0,0c-0.1,1.3-1.2,2.2-2.5,2.1l0,0c-0.2,0-0.4,0.1-0.4,0.3v0.1c0,0.2,0.1,0.4,0.3,0.4l0,0c1.3,0.1,2.2,1.2,2.1,2.5l0,0
		c0,0.2,0.1,0.4,0.3,0.4h0.1c0.2,0,0.4-0.1,0.4-0.3l0,0c0.1-1.3,1.2-2.2,2.5-2.1l0,0c0.2,0,0.4-0.1,0.4-0.3v-0.1
		C-83.4,276.5-83.6,276.3-83.8,276.3z"/>
	<path class="st11" d="M-82.9,260.9L-82.9,260.9c-0.6,0-1-0.6-1-1.2l0,0c0-0.1-0.1-0.2-0.2-0.2l0,0c-0.1,0-0.2,0.1-0.2,0.2l0,0
		c0,0.6-0.6,1-1.2,1l0,0c-0.1,0-0.2,0.1-0.2,0.2l0,0c0,0.1,0.1,0.2,0.2,0.2l0,0c0.6,0,1,0.6,1,1.2l0,0c0,0.1,0.1,0.2,0.2,0.2l0,0
		c0.1,0,0.2-0.1,0.2-0.2l0,0c0-0.6,0.6-1,1.2-1l0,0c0.1,0,0.2-0.1,0.2-0.2l0,0C-82.8,261-82.8,260.9-82.9,260.9z"/>
	<path class="st11" d="M-69.2,259.8L-69.2,259.8c-0.4,0-0.8-0.4-0.7-0.9l0,0c0-0.1,0-0.1-0.1-0.1l0,0c-0.1,0-0.1,0-0.1,0.1l0,0
		c0,0.4-0.4,0.8-0.9,0.7l0,0c-0.1,0-0.1,0-0.1,0.1l0,0c0,0.1,0,0.1,0.1,0.1l0,0c0.4,0,0.8,0.4,0.7,0.9l0,0c0,0.1,0,0.1,0.1,0.1l0,0
		c0.1,0,0.1,0,0.1-0.1l0,0c0-0.4,0.4-0.8,0.9-0.7l0,0c0.1,0,0.1,0,0.1-0.1l0,0C-69,259.8-69.1,259.8-69.2,259.8z"/>
	<path class="st11" d="M-44.3,258.3L-44.3,258.3c-0.4,0-0.8-0.4-0.7-0.9l0,0c0-0.1,0-0.1-0.1-0.1l0,0c-0.1,0-0.1,0-0.1,0.1l0,0
		c0,0.4-0.4,0.8-0.9,0.7l0,0c-0.1,0-0.1,0-0.1,0.1l0,0c0,0.1,0,0.1,0.1,0.1l0,0c0.4,0,0.8,0.4,0.7,0.9l0,0c0,0.1,0,0.1,0.1,0.1l0,0
		c0.1,0,0.1,0,0.1-0.1l0,0c0-0.4,0.4-0.8,0.9-0.7l0,0c0.1,0,0.1,0,0.1-0.1l0,0C-44.2,258.4-44.2,258.4-44.3,258.3z"/>
	<path class="st11" d="M-112.6,272.3L-112.6,272.3c-0.4,0-0.8-0.4-0.7-0.9l0,0c0-0.1,0-0.1-0.1-0.1l0,0c-0.1,0-0.1,0-0.1,0.1l0,0
		c0,0.4-0.4,0.8-0.9,0.7l0,0c-0.1,0-0.1,0-0.1,0.1l0,0c0,0.1,0,0.1,0.1,0.1l0,0c0.4,0,0.8,0.4,0.7,0.9l0,0c0,0.1,0,0.1,0.1,0.1l0,0
		c0.1,0,0.1,0,0.1-0.1l0,0c0-0.4,0.4-0.8,0.9-0.7l0,0c0.1,0,0.1,0,0.1-0.1l0,0C-112.5,272.4-112.5,272.3-112.6,272.3z"/>
	<path class="st11" d="M-95.2,264.2L-95.2,264.2c-0.4,0-0.8-0.4-0.7-0.9l0,0c0-0.1,0-0.1-0.1-0.1l0,0c-0.1,0-0.1,0-0.1,0.1l0,0
		c0,0.4-0.4,0.8-0.9,0.7l0,0c-0.1,0-0.1,0-0.1,0.1l0,0c0,0.1,0,0.1,0.1,0.1l0,0c0.4,0,0.8,0.4,0.7,0.9l0,0c0,0.1,0,0.1,0.1,0.1l0,0
		c0.1,0,0.1,0,0.1-0.1l0,0c0-0.4,0.4-0.8,0.9-0.7l0,0c0.1,0,0.1,0,0.1-0.1l0,0C-95.1,264.3-95.1,264.2-95.2,264.2z"/>
	<path class="st11" d="M-53.6,256.5L-53.6,256.5c-0.4,0-0.8-0.4-0.7-0.9l0,0c0-0.1,0-0.1-0.1-0.1l0,0c-0.1,0-0.1,0-0.1,0.1l0,0
		c0,0.4-0.4,0.8-0.9,0.7l0,0c-0.1,0-0.1,0-0.1,0.1l0,0c0,0.1,0,0.1,0.1,0.1l0,0c0.4,0,0.8,0.4,0.7,0.9l0,0c0,0.1,0,0.1,0.1,0.1l0,0
		c0.1,0,0.1,0,0.1-0.1l0,0c0-0.4,0.4-0.8,0.9-0.7l0,0c0.1,0,0.1,0,0.1-0.1l0,0C-53.5,256.6-53.5,256.5-53.6,256.5z"/>
	<path class="st11" d="M-57.8,267.2L-57.8,267.2c-0.6,0-1.1-0.6-1-1.2l0,0c0-0.1-0.1-0.2-0.2-0.2l0,0c-0.1,0-0.2,0.1-0.2,0.2l0,0
		c0,0.6-0.6,1.1-1.2,1l0,0c-0.1,0-0.2,0.1-0.2,0.2l0,0c0,0.1,0.1,0.2,0.2,0.2l0,0c0.6,0,1.1,0.6,1,1.2l0,0c0,0.1,0.1,0.2,0.2,0.2
		l0,0c0.1,0,0.2-0.1,0.2-0.2l0,0c0-0.6,0.6-1.1,1.2-1l0,0c0.1,0,0.2-0.1,0.2-0.2l0,0C-57.6,267.3-57.7,267.3-57.8,267.2z"/>
	<path class="st11" d="M-97,273.6L-97,273.6c-0.5,0.3-1.2,0.2-1.5-0.3l0,0c-0.1-0.1-0.2-0.1-0.2-0.1l0,0c-0.1,0.1-0.1,0.2-0.1,0.2
		l0,0c0.3,0.5,0.2,1.2-0.3,1.5l0,0c-0.1,0.1-0.1,0.2-0.1,0.2l0,0c0.1,0.1,0.2,0.1,0.2,0.1l0,0c0.5-0.3,1.2-0.2,1.5,0.3l0,0
		c0.1,0.1,0.2,0.1,0.2,0.1l0,0c0.1-0.1,0.1-0.2,0.1-0.2l0,0c-0.3-0.5-0.2-1.2,0.3-1.5l0,0c0.1-0.1,0.1-0.2,0.1-0.2l0,0
		C-96.8,273.5-96.9,273.5-97,273.6z"/>
	<path class="st11" d="M-94.5,281.2L-94.5,281.2c-0.6-0.7-0.5-1.8,0.2-2.4l0,0c0.1-0.1,0.1-0.3,0-0.4l0,0c-0.1-0.1-0.3-0.1-0.4,0
		l0,0c-0.7,0.6-1.8,0.5-2.4-0.2l0,0c-0.1-0.1-0.3-0.1-0.4,0l0,0c-0.1,0.1-0.1,0.3,0,0.4l0,0c0.6,0.7,0.5,1.8-0.2,2.4l0,0
		c-0.1,0.1-0.1,0.3,0,0.4l0,0c0.1,0.1,0.3,0.1,0.4,0l0,0c0.7-0.6,1.8-0.5,2.4,0.2l0,0c0.1,0.1,0.3,0.1,0.4,0l0,0
		C-94.4,281.5-94.4,281.3-94.5,281.2z"/>
	<path class="st11" d="M-61.9,259.9L-61.9,259.9c-0.7,0.6-1.8,0.4-2.4-0.3l0,0c-0.1-0.1-0.3-0.1-0.4-0.1l0,0
		c-0.1,0.1-0.1,0.3-0.1,0.4l0,0c0.6,0.7,0.4,1.8-0.3,2.4l0,0c-0.1,0.1-0.1,0.3-0.1,0.4l0,0c0.1,0.1,0.3,0.1,0.4,0.1l0,0
		c0.7-0.6,1.8-0.4,2.4,0.3l0,0c0.1,0.1,0.3,0.1,0.4,0.1l0,0c0.1-0.1,0.1-0.3,0.1-0.4l0,0c-0.6-0.7-0.4-1.8,0.3-2.4l0,0
		c0.1-0.1,0.1-0.3,0.1-0.4l0,0C-61.6,259.8-61.8,259.8-61.9,259.9z"/>
	<path class="st13" d="M-75.8,232.6L-75.8,232.6c-1.1,0.6-2.6,0.2-3.2-1l0,0c-0.1-0.2-0.3-0.3-0.5-0.2h-0.1
		c-0.2,0.1-0.3,0.3-0.2,0.5l0,0c0.6,1.1,0.2,2.6-1,3.2l0,0c-0.2,0.1-0.3,0.3-0.2,0.5v0.1c0.1,0.2,0.3,0.3,0.5,0.2l0,0
		c1.1-0.6,2.6-0.2,3.2,1l0,0c0.1,0.2,0.3,0.3,0.5,0.2h0.1c0.2-0.1,0.3-0.3,0.2-0.5l0,0c-0.6-1.1-0.2-2.6,1-3.2l0,0
		c0.2-0.1,0.3-0.3,0.2-0.5v-0.1C-75.4,232.6-75.6,232.5-75.8,232.6z"/>
	<path class="st13" d="M-103.8,250.9L-103.8,250.9c0.1,1.3-0.8,2.4-2.1,2.6l0,0c-0.2,0-0.4,0.2-0.3,0.4v0.1c0,0.2,0.2,0.4,0.4,0.3
		l0,0c1.3-0.1,2.4,0.8,2.6,2.1l0,0c0,0.2,0.2,0.4,0.4,0.3h0.1c0.2,0,0.4-0.2,0.3-0.4l0,0c-0.1-1.3,0.8-2.4,2.1-2.6l0,0
		c0.2,0,0.4-0.2,0.3-0.4v-0.1c0-0.2-0.2-0.4-0.4-0.3l0,0c-1.3,0.1-2.4-0.8-2.6-2.1l0,0c0-0.2-0.2-0.4-0.4-0.3h-0.1
		C-103.7,250.5-103.8,250.7-103.8,250.9z"/>
	<path class="st13" d="M-105.7,248.4L-105.7,248.4c-0.5,0.5-1.3,0.4-1.7-0.1l0,0c-0.1-0.1-0.2-0.1-0.3,0l0,0c-0.1,0.1-0.1,0.2,0,0.3
		l0,0c0.5,0.5,0.4,1.3-0.1,1.7l0,0c-0.1,0.1-0.1,0.2,0,0.3l0,0c0.1,0.1,0.2,0.1,0.3,0l0,0c0.5-0.5,1.3-0.4,1.7,0.1l0,0
		c0.1,0.1,0.2,0.1,0.3,0l0,0c0.1-0.1,0.1-0.2,0-0.3l0,0c-0.5-0.5-0.4-1.3,0.1-1.7l0,0c0.1-0.1,0.1-0.2,0-0.3l0,0
		C-105.5,248.4-105.6,248.4-105.7,248.4z"/>
	<path class="st13" d="M-73.6,246.8L-73.6,246.8c-0.7,0.2-1.3-0.3-1.5-0.9l0,0c0-0.1-0.1-0.2-0.2-0.1l0,0c-0.1,0-0.2,0.1-0.1,0.2
		l0,0c0.2,0.7-0.3,1.3-0.9,1.5l0,0c-0.1,0-0.2,0.1-0.1,0.2l0,0c0,0.1,0.1,0.2,0.2,0.1l0,0c0.7-0.2,1.3,0.3,1.5,0.9l0,0
		c0,0.1,0.1,0.2,0.2,0.1l0,0c0.1,0,0.2-0.1,0.1-0.2l0,0c-0.2-0.7,0.3-1.3,0.9-1.5l0,0c0.1,0,0.2-0.1,0.1-0.2l0,0
		C-73.4,246.8-73.5,246.8-73.6,246.8z"/>
	<path class="st13" d="M-61,237.3L-61,237.3c-0.5,0.9-1.7,1.2-2.6,0.7l0,0c-0.1-0.1-0.3,0-0.4,0.1l0,0c-0.1,0.1,0,0.3,0.1,0.4l0,0
		c0.9,0.5,1.2,1.7,0.7,2.6l0,0c-0.1,0.1,0,0.3,0.1,0.4l0,0c0.1,0.1,0.3,0,0.4-0.1l0,0c0.5-0.9,1.7-1.2,2.6-0.7l0,0
		c0.1,0.1,0.3,0,0.4-0.1l0,0c0.1-0.1,0-0.3-0.1-0.4l0,0c-0.9-0.5-1.2-1.7-0.7-2.6l0,0c0.1-0.1,0-0.3-0.1-0.4l0,0
		C-60.7,237.1-60.9,237.1-61,237.3z"/>
	<path class="st13" d="M-67.8,306.9L-67.8,306.9c1.3,0.1,2.3,1.2,2.2,2.5l0,0c0,0.2,0.2,0.4,0.4,0.4h0.1c0.2,0,0.4-0.2,0.4-0.4l0,0
		c0.1-1.3,1.2-2.3,2.5-2.2l0,0c0.2,0,0.4-0.2,0.4-0.4v-0.1c0-0.2-0.2-0.4-0.4-0.4l0,0c-1.3-0.1-2.3-1.2-2.2-2.5l0,0
		c0-0.2-0.2-0.4-0.4-0.4h-0.1c-0.2,0-0.4,0.2-0.4,0.4l0,0c-0.1,1.3-1.2,2.3-2.5,2.2l0,0c-0.2,0-0.4,0.2-0.4,0.4v0.1
		C-68.1,306.7-68,306.9-67.8,306.9z"/>
	<path class="st13" d="M-47.6,295.2L-47.6,295.2c1-0.8,2.5-0.7,3.3,0.3l0,0c0.1,0.2,0.4,0.2,0.5,0.1l0,0c0.2-0.1,0.2-0.4,0.1-0.5
		l0,0c-0.8-1-0.7-2.5,0.3-3.3l0,0c0.2-0.1,0.2-0.4,0.1-0.5l0,0c-0.1-0.2-0.4-0.2-0.5-0.1l0,0c-1,0.8-2.5,0.7-3.3-0.3l0,0
		c-0.1-0.2-0.4-0.2-0.5-0.1l0,0c-0.2,0.1-0.2,0.4-0.1,0.5l0,0c0.8,1,0.7,2.5-0.3,3.3l0,0c-0.2,0.1-0.2,0.4-0.1,0.5l0,0
		C-48,295.3-47.8,295.3-47.6,295.2z"/>
	<path class="st13" d="M-89.3,307.7L-89.3,307.7c0.7,0.2,1.1,0.8,0.9,1.5l0,0c0,0.1,0,0.2,0.1,0.2l0,0c0.1,0,0.2,0,0.2-0.1l0,0
		c0.2-0.7,0.8-1.1,1.5-0.9l0,0c0.1,0,0.2,0,0.2-0.1l0,0c0-0.1,0-0.2-0.1-0.2l0,0c-0.7-0.2-1.1-0.8-0.9-1.5l0,0c0-0.1,0-0.2-0.1-0.2
		l0,0c-0.1,0-0.2,0-0.2,0.1l0,0c-0.2,0.7-0.8,1.1-1.5,0.9l0,0c-0.1,0-0.2,0-0.2,0.1l0,0C-89.4,307.5-89.4,307.6-89.3,307.7z"/>
	<path class="st13" d="M-62.4,301.6L-62.4,301.6c0.6,0.2,1,0.9,0.8,1.5l0,0c0,0.1,0,0.2,0.1,0.2l0,0c0.1,0,0.2,0,0.2-0.1l0,0
		c0.2-0.6,0.9-1,1.5-0.8l0,0c0.1,0,0.2,0,0.2-0.1l0,0c0-0.1,0-0.2-0.1-0.2l0,0c-0.6-0.2-1-0.9-0.8-1.5l0,0c0-0.1,0-0.2-0.1-0.2l0,0
		c-0.1,0-0.2,0-0.2,0.1l0,0c-0.2,0.6-0.9,1-1.5,0.8l0,0c-0.1,0-0.2,0-0.2,0.1l0,0C-62.6,301.5-62.5,301.6-62.4,301.6z"/>
	<path class="st13" d="M-82.8,296.1L-82.8,296.1c0.9-0.5,2.1-0.2,2.6,0.7l0,0c0.1,0.1,0.3,0.2,0.4,0.1l0,0c0.1-0.1,0.2-0.3,0.1-0.4
		l0,0c-0.5-0.9-0.2-2.1,0.7-2.6l0,0c0.1-0.1,0.2-0.3,0.1-0.4l0,0c-0.1-0.1-0.3-0.2-0.4-0.1l0,0c-0.9,0.5-2.1,0.2-2.6-0.7l0,0
		c-0.1-0.1-0.3-0.2-0.4-0.1l0,0c-0.1,0.1-0.2,0.3-0.1,0.4l0,0c0.5,0.9,0.2,2.1-0.7,2.6l0,0c-0.1,0.1-0.2,0.3-0.1,0.4l0,0
		C-83.1,296.1-82.9,296.2-82.8,296.1z"/>
	<circle class="st14" cx="-76" cy="272" r="50"/>
	<g class="st8">
		<path class="st2" d="M-76,224.5c26.2,0,47.5,21.3,47.5,47.5s-21.3,47.5-47.5,47.5s-47.5-21.3-47.5-47.5S-102.2,224.5-76,224.5
			 M-76,222c-27.6,0-50,22.4-50,50s22.4,50,50,50c27.6,0,50-22.4,50-50S-48.4,222-76,222L-76,222z"/>
	</g>
	<path class="st11" d="M-42.6,270.8L-42.6,270.8c-1.8,0.2-3.4-1-3.6-2.8l0,0c0-0.3-0.3-0.5-0.6-0.5h-0.1c-0.3,0-0.5,0.3-0.5,0.6l0,0
		c0.2,1.8-1,3.4-2.8,3.6l0,0c-0.3,0-0.5,0.3-0.5,0.6v0.1c0,0.3,0.3,0.5,0.6,0.5l0,0c1.8-0.2,3.4,1,3.6,2.8l0,0
		c0,0.3,0.3,0.5,0.6,0.5h0.1c0.3,0,0.5-0.3,0.5-0.6l0,0c-0.2-1.8,1-3.4,2.8-3.6l0,0c0.3,0,0.5-0.3,0.5-0.6v-0.1
		C-42.1,270.9-42.3,270.7-42.6,270.8z"/>
	<path class="st12" d="M-58.3,263c0.2,0,20.2,2.7,17.1,7.9c-1,6.8,4.7-2.5,4.7-2.5s0.4-4.2-7.8-5.5c-6.6-1-11.5-1.6-13.1-1.6
		C-59.6,261.5-58.5,262.9-58.3,263z"/>
	<g class="st8">
		<g>
			<g>
				<path class="st5" d="M-57.7,261.7c0-0.3,0.2-0.5,0.4-0.5c0,0,0.8,0,2.1-0.1c1.3,0,3.2-0.1,5.3,0s4.5,0.3,6.8,0.8
					c1.2,0.3,2.3,0.6,3.5,1c1.1,0.4,2.2,1.1,3.1,2l0.3,0.3c0.1,0.1,0.2,0.3,0.3,0.4l0.3,0.5c0.1,0.2,0.1,0.4,0.2,0.5
					c0.3,0.7,0.3,1.6,0.2,2.4c-0.4,1.6-1.4,2.6-2.3,3.5c-1.9,1.7-4.1,2.7-6.1,3.6c-2,0.8-3.7,1.4-5,1.8c-1.3,0.4-2,0.6-2,0.6
					c-0.2,0.1-0.5-0.1-0.6-0.4s0-0.5,0.2-0.6c0,0,0.2-0.1,0.5-0.2c0.4-0.2,0.9-0.4,1.5-0.7c1.3-0.6,3-1.4,4.8-2.4s3.7-2.3,5-3.8
					c0.6-0.7,1-1.5,1.1-2c0-0.5-0.2-0.9-0.6-1.4c-0.2-0.2-0.5-0.4-0.8-0.7c-0.4-0.2-0.7-0.4-1.1-0.6c-0.8-0.4-1.8-0.8-2.8-1.1
					c-2-0.7-4.3-1.1-6.4-1.5c-2.1-0.3-4-0.5-5.3-0.7c-1.4-0.1-2.2-0.2-2.2-0.2C-57.6,262.2-57.8,262-57.7,261.7z"/>
			</g>
		</g>
	</g>
	<path class="st12" d="M-111.2,280.6c5.2-7.4,12.1-10.6,45.1-17.6c0.6-0.8-0.7-1.3-0.9-1.3c-2.4,0.1-16.1,1-26.4,4.1
		c-11.3,3.4-20.4,9.3-20.4,9.3l-2.8,4.1C-116.6,279.2-111.4,282.2-111.2,280.6z"/>
	<g class="st8">
		<g>
			<g>
				<path class="st5" d="M-66.6,262.1c0,0.3-0.3,0.5-0.8,0.6c0,0-1.5,0.2-4.1,0.6c-1.3,0.2-2.8,0.4-4.5,0.7s-3.6,0.7-5.6,1.1
					c-8,1.7-17.6,4.6-24.4,7.9c-1.7,0.8-3.5,1.8-5.1,2.9c-0.8,0.6-1.6,1.2-2.3,1.9c-0.7,0.7-1.2,1.5-1.4,2.2c-0.2,0.7,0,1.4,0.5,2.1
					c0.5,0.7,1.3,1.3,2.2,1.8c1.8,1,3.8,1.6,5.7,2.1c3.9,1,7.5,1.3,10,1.6c2.6,0.2,4.1,0.3,4.1,0.3c0.5,0,0.8,0.2,0.8,0.5
					c0,0.3-0.4,0.5-0.8,0.5c0,0-1.7,0.1-4.5,0s-6.6-0.2-10.8-1.1c-2.1-0.5-4.4-1.1-6.5-2.3c-1.1-0.6-2.1-1.5-2.8-2.8
					c-0.2-0.3-0.3-0.7-0.4-1c-0.1-0.4-0.2-0.7-0.2-1.1c0-0.8,0.1-1.5,0.4-2.1c0.5-1.3,1.3-2.3,2.2-3.1c0.8-0.8,1.7-1.6,2.6-2.2
					c1.8-1.2,3.5-2.2,5.1-3c3.1-1.5,7.2-3,11.5-4.2s8.9-2.2,13.1-2.8c2.1-0.3,4.1-0.6,5.9-0.8c1.8-0.2,3.5-0.3,4.8-0.4
					c2.7-0.2,4.4-0.3,4.4-0.3C-67,261.6-66.6,261.8-66.6,262.1z"/>
			</g>
		</g>
	</g>
	<g class="st8">
		<g>
			<path id="SVGID_33_" class="st5" d="M-67.9,264.1L-67.9,264.1c-4.3,0.5-8.1-2.6-8.6-6.9l0,0c-0.1-0.7-0.7-1.2-1.4-1.1h-0.2
				c-0.7,0.1-1.2,0.7-1.1,1.4l0,0c0.5,4.3-2.6,8.1-6.9,8.6l0,0c-0.7,0.1-1.2,0.7-1.1,1.4v0.2c0.1,0.7,0.7,1.2,1.4,1.1l0,0
				c4.3-0.5,8.1,2.6,8.6,6.9l0,0c0.1,0.7,0.7,1.2,1.4,1.1h0.2c0.7-0.1,1.2-0.7,1.1-1.4l0,0c-0.5-4.3,2.6-8.1,6.9-8.6l0,0
				c0.7-0.1,1.2-0.7,1.1-1.4v-0.2C-66.6,264.5-67.2,264-67.9,264.1z"/>
		</g>
		<g>
			<defs>
				<path id="SVGID_9_" d="M-67.9,264.1L-67.9,264.1c-4.3,0.5-8.1-2.6-8.6-6.9l0,0c-0.1-0.7-0.7-1.2-1.4-1.1h-0.2
					c-0.7,0.1-1.2,0.7-1.1,1.4l0,0c0.5,4.3-2.6,8.1-6.9,8.6l0,0c-0.7,0.1-1.2,0.7-1.1,1.4v0.2c0.1,0.7,0.7,1.2,1.4,1.1l0,0
					c4.3-0.5,8.1,2.6,8.6,6.9l0,0c0.1,0.7,0.7,1.2,1.4,1.1h0.2c0.7-0.1,1.2-0.7,1.1-1.4l0,0c-0.5-4.3,2.6-8.1,6.9-8.6l0,0
					c0.7-0.1,1.2-0.7,1.1-1.4v-0.2C-66.6,264.5-67.2,264-67.9,264.1z"/>
			</defs>
			<clipPath id="SVGID_10_">
				<use xlink:href="#SVGID_9_"  style="overflow:visible;"/>
			</clipPath>
			<path class="st21" d="M-74.6,268.5c-0.6,0.1-1.2,0.2-1.8,0.3c-1.3,0.2-2.7,0.4-3.9,0.5c-9.7,1-17.2,0.1-17.6-2.2
				c-0.4-2.6,6.6-12.4,18.1-14c11.5-1.7,23.1,5.4,23.5,8C-56,263.5-64,266.7-74.6,268.5z"/>
		</g>
	</g>
	<g class="st8">
		<path class="st5" d="M-125,329.9c0,0,0.2,0,0.6-0.1c0.4-0.1,0.9-0.2,1.6-0.2c1.4-0.1,3.3-0.5,5.7-0.6c1.2-0.1,2.4-0.2,3.8-0.3
			c1.3-0.1,2.8-0.2,4.2-0.2c1.5,0,3-0.1,4.5-0.1s3.1,0,4.7-0.1c1.6,0,3.1,0,4.7,0.1c1.5,0,3.1,0.1,4.5,0.1c1.5,0,2.9,0.1,4.2,0.2
			c1.3,0.1,2.6,0.2,3.8,0.3c2.3,0.2,4.3,0.5,5.7,0.6c0.7,0.1,1.2,0.2,1.6,0.2c0.4,0.1,0.6,0.1,0.6,0.1v0.2c0,0-12.5,0-25,0.1
			c-12.5,0-25-0.1-25-0.1v-0.2H-125z"/>
	</g>
	<path class="st22" d="M-73,336.5L-73,336.5c0,0.3-0.2,0.5-0.5,0.5c0,0-15.1,1-24.5,1s-24.5-1-24.5-1c-0.3,0-0.5-0.2-0.5-0.5l0,0
		c0-0.3,0.2-0.5,0.5-0.5c0,0,16.3-1,24.5-1s24.5,1,24.5,1C-73.2,336-73,336.2-73,336.5z"/>
	<path class="st11" d="M-95.6,266.7L-95.6,266.7c0.4,0.9,0,1.9-0.9,2.2l0,0c-0.1,0.1-0.2,0.2-0.1,0.4l0,0c0.1,0.1,0.2,0.2,0.4,0.1
		l0,0c0.9-0.4,1.9,0,2.2,0.9l0,0c0.1,0.1,0.2,0.2,0.4,0.1l0,0c0.1-0.1,0.2-0.2,0.1-0.4l0,0c-0.4-0.9,0-1.9,0.9-2.2l0,0
		c0.1-0.1,0.2-0.2,0.1-0.4l0,0c-0.1-0.1-0.2-0.2-0.4-0.1l0,0c-0.9,0.4-1.9,0-2.2-0.9l0,0c-0.1-0.1-0.2-0.2-0.4-0.1l0,0
		C-95.6,266.4-95.6,266.5-95.6,266.7z"/>
	<path class="st7" d="M-441.9,351c0,2-8.7-0.1-8.8,2c0.9,0.2,4.6-0.6,4.7,0.5c0.1,1.8-5.4,1-6.5,1.1c-0.9,0.1-3.3,0.1-3.5,1.2
		c0.8,0.3,3.6,0,2.5,1.3c-0.9,1.1-4.2,0.2-5.6,0.6c-1.2,0.4-2.1,1.7-0.4,2c2.1,0.3,4.3-0.5,6.4-0.6c1.6-0.1,4.9,0.3,6-1.1
		c-0.8-0.7-2.2,0.1-2.9-0.4c-1-0.7,0.8-1.1,1.3-1.1c1.4-0.2,2.7-0.1,4.1-0.1c1.5,0,1.6-0.8,0.2-1.3c0.3-1.9,3.4-0.1,4-1.2
		c0.3-0.6-0.8-1.1-1.1-1.5c-0.4-0.4-0.6-1.3-0.8-1.5"/>
	<path class="st13" d="M-514.5,322.8L-514.5,322.8c-1.4-1.4-1.4-3.7,0-5.1l0,0c0.2-0.2,0.2-0.6,0-0.8l-0.1-0.1
		c-0.2-0.2-0.6-0.2-0.8,0l0,0c-1.4,1.4-3.7,1.4-5.1,0l0,0c-0.2-0.2-0.6-0.2-0.8,0l-0.1,0.1c-0.2,0.2-0.2,0.6,0,0.8l0,0
		c1.4,1.4,1.4,3.7,0,5.1l0,0c-0.2,0.2-0.2,0.6,0,0.8l0.1,0.1c0.2,0.2,0.6,0.2,0.8,0l0,0c1.4-1.4,3.7-1.4,5.1,0l0,0
		c0.2,0.2,0.6,0.2,0.8,0l0.1-0.1C-514.2,323.4-514.2,323.1-514.5,322.8z"/>
	<path class="st13" d="M-518.9,260.2L-518.9,260.2c-2,0-3.6-1.6-3.6-3.6l0,0c0-0.3-0.3-0.6-0.6-0.6h-0.1c-0.3,0-0.6,0.3-0.6,0.6l0,0
		c0,2-1.6,3.6-3.6,3.6l0,0c-0.3,0-0.6,0.3-0.6,0.6v0.1c0,0.3,0.3,0.6,0.6,0.6l0,0c2,0,3.6,1.6,3.6,3.6l0,0c0,0.3,0.3,0.6,0.6,0.6
		h0.1c0.3,0,0.6-0.3,0.6-0.6l0,0c0-2,1.6-3.6,3.6-3.6l0,0c0.3,0,0.6-0.3,0.6-0.6v-0.1C-518.3,260.5-518.6,260.2-518.9,260.2z"/>
	<circle class="st11" cx="-539" cy="289" r="19.9"/>
	<circle class="st23" cx="-519.2" cy="293.7" r="4.3"/>
	<g class="st8">
		<ellipse class="st24" cx="-539" cy="289" rx="25.8" ry="7.2"/>
		<ellipse class="st25" cx="-539" cy="289" rx="25.8" ry="7.2"/>
	</g>
	<g class="st8">
		<path class="st2" d="M-539,241.5c26.2,0,47.5,21.3,47.5,47.5s-21.3,47.5-47.5,47.5s-47.5-21.3-47.5-47.5S-565.2,241.5-539,241.5
			 M-539,239c-27.6,0-50,22.4-50,50s22.4,50,50,50c27.6,0,50-22.4,50-50S-511.4,239-539,239L-539,239z"/>
	</g>
	<g class="st8">
		<g>
			<path id="SVGID_35_" class="st2" d="M-558.9,289c0-11,8.9-19.9,19.9-19.9c9.9,0,18.1,7.2,19.7,16.7c0.2,1.1,0.3,2.2,0.3,3.3"/>
		</g>
	</g>
	<circle class="st26" cx="-519.2" cy="293.7" r="4.3"/>
	<path class="st27" d="M-544.8,276.9l-24-0.1c-0.6,0-1,0.4-1,1l0,0c0,0.6,0.4,1,1,1l24,0.1c0.6,0,1-0.4,1-1l0,0
		C-543.8,277.3-544.3,276.9-544.8,276.9z"/>
	<path class="st27" d="M-539.3,272.9l-24-0.1c-0.6,0-1,0.4-1,1l0,0c0,0.6,0.4,1,1,1l24,0.1c0.6,0,1-0.4,1-1l0,0
		C-538.3,273.4-538.8,272.9-539.3,272.9z"/>
	<path class="st27" d="M-550.3,280.9l-24-0.1c-0.6,0-1,0.4-1,1l0,0c0,0.6,0.4,1,1,1l24,0.1c0.6,0,1-0.4,1-1l0,0
		C-549.3,281.3-549.8,280.9-550.3,280.9z"/>
	<path class="st13" d="M-571.7,281.9L-571.7,281.9c-1.4,1.4-3.7,1.4-5.1,0l0,0c-0.2-0.2-0.6-0.2-0.8,0l-0.1,0.1
		c-0.2,0.2-0.2,0.6,0,0.8l0,0c1.4,1.4,1.4,3.7,0,5.1l0,0c-0.2,0.2-0.2,0.6,0,0.8l0.1,0.1c0.2,0.2,0.6,0.2,0.8,0l0,0
		c1.4-1.4,3.7-1.4,5.1,0l0,0c0.2,0.2,0.6,0.2,0.8,0l0.1-0.1c0.2-0.2,0.2-0.6,0-0.8l0,0c-1.4-1.4-1.4-3.7,0-5.1l0,0
		c0.2-0.2,0.2-0.6,0-0.8l-0.1-0.1C-571.1,281.6-571.5,281.6-571.7,281.9z"/>
	<path class="st7" d="M-339.5,434.8L-339.5,434.8c-1.4-1.4-1.4-3.7,0-5.1l0,0c0.2-0.2,0.2-0.6,0-0.8l-0.1-0.1
		c-0.2-0.2-0.6-0.2-0.8,0l0,0c-1.4,1.4-3.7,1.4-5.1,0l0,0c-0.2-0.2-0.6-0.2-0.8,0l-0.1,0.1c-0.2,0.2-0.2,0.6,0,0.8l0,0
		c1.4,1.4,1.4,3.7,0,5.1l0,0c-0.2,0.2-0.2,0.6,0,0.8l0.1,0.1c0.2,0.2,0.6,0.2,0.8,0l0,0c1.4-1.4,3.7-1.4,5.1,0l0,0
		c0.2,0.2,0.6,0.2,0.8,0l0.1-0.1C-339.2,435.4-339.2,435.1-339.5,434.8z"/>
	<path class="st7" d="M-343.9,372.2L-343.9,372.2c-2,0-3.6-1.6-3.6-3.6l0,0c0-0.3-0.3-0.6-0.6-0.6h-0.1c-0.3,0-0.6,0.3-0.6,0.6l0,0
		c0,2-1.6,3.6-3.6,3.6l0,0c-0.3,0-0.6,0.3-0.6,0.6v0.1c0,0.3,0.3,0.6,0.6,0.6l0,0c2,0,3.6,1.6,3.6,3.6l0,0c0,0.3,0.3,0.6,0.6,0.6
		h0.1c0.3,0,0.6-0.3,0.6-0.6l0,0c0-2,1.6-3.6,3.6-3.6l0,0c0.3,0,0.6-0.3,0.6-0.6v-0.1C-343.3,372.5-343.6,372.2-343.9,372.2z"/>
	<circle class="st16" cx="-363.9" cy="400.9" r="20"/>
	<g class="st8">
		<g>
			<circle class="st3" cx="-344.2" cy="405.7" r="4.8"/>
			<path class="st3" d="M-344.2,413.3c-4.2,0-7.6-3.4-7.6-7.6c0-4.2,3.4-7.6,7.6-7.6s7.6,3.4,7.6,7.6
				C-336.6,409.9-340,413.3-344.2,413.3z M-344.2,403.7c-1.1,0-2,0.9-2,2c0,1.1,0.9,2,2,2c1.1,0,2-0.9,2-2
				C-342.2,404.6-343.1,403.7-344.2,403.7z"/>
		</g>
	</g>
	<g class="st8">
		<path class="st3" d="M-334.7,401c0,10.4-26.3,10.8-29.3,10.8s-29.2-0.3-29.2-10.8h7.4c2.4,1.5,9.9,3.8,21.8,3.8
			c11.9,0,19.4-2.2,21.8-3.8H-334.7z"/>
	</g>
	<g class="st8">
		<path class="st5" d="M-364,409c-12.9,0-26.6-2.8-26.6-8s13.7-8,26.6-8c12.9,0,26.6,2.8,26.6,8S-351.1,409-364,409z M-364,394.5
			c-14.8,0-25.1,3.4-25.1,6.5s10.3,6.5,25.1,6.5s25.1-3.4,25.1-6.5S-349.2,394.5-364,394.5z"/>
	</g>
	<g class="st8">
		<path class="st2" d="M-364,353.5c26.2,0,47.5,21.3,47.5,47.5s-21.3,47.5-47.5,47.5s-47.5-21.3-47.5-47.5S-390.2,353.5-364,353.5
			 M-364,351c-27.6,0-50,22.4-50,50s22.4,50,50,50s50-22.4,50-50S-336.4,351-364,351L-364,351z"/>
	</g>
	<g class="st8">
		<g>
			<circle class="st4" cx="-344.2" cy="405.7" r="4.3"/>
			<path class="st5" d="M-344.2,410.7c-2.8,0-5-2.2-5-5c0-2.8,2.2-5,5-5c2.8,0,5,2.2,5,5C-339.2,408.5-341.4,410.7-344.2,410.7z"/>
		</g>
	</g>
	<path class="st7" d="M-397.6,398.4L-397.6,398.4c-1.4,1.4-3.7,1.4-5.1,0l0,0c-0.2-0.2-0.6-0.2-0.8,0l-0.1,0.1
		c-0.2,0.2-0.2,0.6,0,0.8l0,0c1.4,1.4,1.4,3.7,0,5.1l0,0c-0.2,0.2-0.2,0.6,0,0.8l0.1,0.1c0.2,0.2,0.6,0.2,0.8,0l0,0
		c1.4-1.4,3.7-1.4,5.1,0l0,0c0.2,0.2,0.6,0.2,0.8,0l0.1-0.1c0.2-0.2,0.2-0.6,0-0.8l0,0c-1.4-1.4-1.4-3.7,0-5.1l0,0
		c0.2-0.2,0.2-0.6,0-0.8l-0.1-0.1C-397,398.1-397.4,398.1-397.6,398.4z"/>
	<path class="st16" d="M-383.9,401c0-11,9-20,20-20c9.8,0,18,7.1,19.7,16.5"/>
	<path class="st27" d="M-369.8,388.9l-24-0.1c-0.6,0-1,0.4-1,1l0,0c0,0.6,0.4,1,1,1l24,0.1c0.6,0,1-0.4,1-1l0,0
		C-368.8,389.3-369.3,388.9-369.8,388.9z"/>
	<path class="st27" d="M-364.3,384.9l-24-0.1c-0.6,0-1,0.4-1,1l0,0c0,0.6,0.4,1,1,1l24,0.1c0.6,0,1-0.4,1-1l0,0
		C-363.3,385.4-363.8,384.9-364.3,384.9z"/>
	<path class="st27" d="M-375.3,392.9l-24-0.1c-0.6,0-1,0.4-1,1l0,0c0,0.6,0.4,1,1,1l24,0.1c0.6,0,1-0.4,1-1l0,0
		C-374.3,393.3-374.8,392.9-375.3,392.9z"/>
	<rect x="-452.2" y="387.4" class="st22" width="10.9" height="2"/>
	<rect x="-463" y="384.4" class="st22" width="24.1" height="2"/>
	<rect x="-455.3" y="381.4" class="st22" width="24.1" height="2"/>
	<rect x="-448.5" y="386.1" class="st22" width="3.6" height="1.7"/>
	<rect x="-451.6" y="383.1" class="st22" width="8.9" height="1.7"/>
	<rect x="-479" y="396.8" class="st22" width="10.9" height="2"/>
	<rect x="-475.2" y="393.8" class="st22" width="12.6" height="2"/>
	<rect x="-476.3" y="390.9" class="st22" width="24.1" height="2"/>
	<rect x="-473.2" y="395.5" class="st22" width="3.7" height="1.7"/>
	<rect x="-472.2" y="392.5" class="st22" width="5.8" height="1.7"/>
	<path class="st7" d="M-471.9,370.8c0.9-0.3,8.5-1,8.3,0.3c-0.1,0.7-2.4,0.4-3,0.6c-1.7,0.8,1.3,1.3,2,1.2c1.6-0.1,3.1-0.3,4.7-0.5
		c0.6-0.1,3,0.3,3.2-0.6c0.2-1-3,0-2.5-1.5c0.3-0.9,3.4-0.8,4.3-0.8c0.9-0.1,2.3-0.1,3-0.8c1-0.9-0.7-0.6-1.3-0.9
		c-1-0.5,0.3-0.8,1-0.8c1,0.1,2,0.3,2.8-0.6c-0.3-0.4-1.1-0.4-1.6-0.6c-1.6-0.5-3.4-0.5-5.1-0.6c-1.9-0.1-3.9-0.4-5.8-0.3
		c-1.9,0.2-4.5,0.9-6.1,2C-469.5,368-471.1,369.4-471.9,370.8"/>
	<rect x="-698.7" y="249.5" class="st8" width="6" height="18.8"/>
	<rect x="-705.1" y="255.9" class="st8" width="18.8" height="6"/>
	<path class="st8" d="M-638.8,246.3L-638.8,246.3c-5.8,0-10.5-4.7-10.5-10.5l0,0c0-0.8-0.7-1.5-1.5-1.5l0,0c-0.8,0-1.5,0.7-1.5,1.5
		l0,0c0,5.8-4.7,10.5-10.5,10.5l0,0c-0.8,0-1.5,0.7-1.5,1.5l0,0c0,0.8,0.7,1.5,1.5,1.5l0,0c5.8,0,10.5,4.7,10.5,10.5l0,0
		c0,0.8,0.7,1.5,1.5,1.5l0,0c0.8,0,1.5-0.7,1.5-1.5l0,0c0-5.8,4.7-10.5,10.5-10.5l0,0c0.8,0,1.5-0.7,1.5-1.5l0,0
		C-637.3,247-638,246.3-638.8,246.3z"/>
	<g class="st8">
		<path class="st28" d="M-932,657.9h2.7c1.1,0,2,0.9,2,2v3.4c0,1.1-0.9,2-2,2h-2.7V657.9z"/>
		<path class="st28" d="M-967.6,665.3h-2.7c-1.1,0-2-0.9-2-2v-3.4c0-1.1,0.9-2,2-2h2.7V665.3z"/>
	</g>
	<path class="st29" d="M-930.8,680l-0.3,4h-35l-0.5-3.8c3.5,1.6,10.1,2.6,17.7,2.6C-941.1,682.8-934.2,681.6-930.8,680z"/>
	<g class="st8">
		<g>
			<defs>
				<path id="SVGID_11_" d="M-908.8,731v-20c0-19.3-15.7-33-35-33h-10c-19.3,0-35,13.7-35,33v20"/>
			</defs>
			<clipPath id="SVGID_12_">
				<use xlink:href="#SVGID_11_"  style="overflow:visible;"/>
			</clipPath>
			<g class="st30">
				<g>
					<path class="st31" d="M-976.1,677.9c3.5,0,15.6,6.1,15.6,19.1"/>
					<path class="st32" d="M-976.1,677.9c3.5,0,15.6,6.1,15.6,19.1"/>
				</g>
				<g>
					<path class="st31" d="M-921.5,677.9c-3.5,0-15.6,6.1-15.6,19.1"/>
					<path class="st32" d="M-921.5,677.9c-3.5,0-15.6,6.1-15.6,19.1"/>
				</g>
			</g>
		</g>
	</g>
	<polygon class="st33" points="-1248.3,693.4 -1248.3,682.9 -1219.2,663 -1223,652.5 -1191.2,639 -1191.2,693 	"/>
	<path class="st34" d="M-1190.6,658.6l-28.6,4.4l8.6,29.4c-0.6,0.2,19.8-24.8,19.8-24.8l-57.5,15.3"/>
	<g class="st8">
		<path class="st2" d="M-1178,623.5c1.9,0,3.5,1.6,3.5,3.5v108c0,1.9-1.6,3.5-3.5,3.5h-96c-1.9,0-3.5-1.6-3.5-3.5V627
			c0-1.9,1.6-3.5,3.5-3.5H-1178 M-1178,621h-96c-3.3,0-6,2.7-6,6v108c0,3.3,2.7,6,6,6h96c3.3,0,6-2.7,6-6V627
			C-1172,623.7-1174.7,621-1178,621L-1178,621z"/>
	</g>
	<g class="st8">
		<path class="st2" d="M-1178,623.5c1.9,0,3.5,1.6,3.5,3.5v75.5h-103V627c0-1.9,1.6-3.5,3.5-3.5H-1178 M-1178,621h-96
			c-3.3,0-6,2.7-6,6v78h108v-78C-1172,623.7-1174.7,621-1178,621L-1178,621z"/>
	</g>
	<rect x="-1253.8" y="633.2" class="st35" width="62.8" height="59.5"/>
	<rect x="-1184.6" y="631.6" class="st11" width="4.8" height="4.8"/>
	<rect x="-1184.6" y="641.2" class="st22" width="4.8" height="4.8"/>
	<rect x="-1184.6" y="655.6" class="st36" width="4.8" height="4.8"/>
	<rect x="-1184.6" y="662.9" class="st36" width="4.8" height="4.8"/>
	<rect x="-1184.6" y="670" class="st11" width="4.8" height="4.8"/>
	<rect x="-1184.6" y="684.5" class="st22" width="4.8" height="4.8"/>
	<rect x="-1272" y="662.9" class="st36" width="12" height="4.8"/>
	<rect x="-1272" y="670" class="st11" width="12" height="4.8"/>
	<rect x="-1272" y="677.2" class="st22" width="12" height="4.8"/>
	<rect x="-1272" y="684.5" class="st11" width="12" height="4.8"/>
	<rect x="-1272" y="631.6" class="st11" width="4.8" height="21.6"/>
	<rect x="-1264.8" y="631.6" class="st11" width="4.8" height="21.6"/>
	<g class="st8">
		<rect x="-1267" y="712" class="st2" width="9.6" height="2.4"/>
		<rect x="-1252.6" y="712" class="st2" width="9.6" height="2.4"/>
		<rect x="-1238.2" y="712" class="st2" width="9.6" height="2.4"/>
		<rect x="-1223.8" y="712" class="st2" width="9.6" height="2.4"/>
		<rect x="-1209.4" y="712" class="st2" width="9.6" height="2.4"/>
		<rect x="-1195" y="712" class="st2" width="9.6" height="2.4"/>
	</g>
	<g class="st8">
		<rect x="-1274.2" y="720.5" class="st2" width="9.6" height="2.4"/>
		<rect x="-1259.8" y="720.5" class="st2" width="9.6" height="2.4"/>
		<rect x="-1245.4" y="720.5" class="st2" width="9.6" height="2.4"/>
		<rect x="-1231" y="720.5" class="st2" width="9.6" height="2.4"/>
		<rect x="-1216.6" y="720.5" class="st2" width="9.6" height="2.4"/>
		<rect x="-1202.2" y="720.5" class="st2" width="9.6" height="2.4"/>
		<rect x="-1187.8" y="720.5" class="st2" width="9.6" height="2.4"/>
	</g>
	<g class="st8">
		<rect x="-1267" y="728.9" class="st2" width="9.6" height="2.4"/>
		<rect x="-1252.6" y="728.9" class="st5" width="9.6" height="2.4"/>
		<rect x="-1238.2" y="728.9" class="st5" width="9.6" height="2.4"/>
		<rect x="-1223.8" y="728.9" class="st5" width="9.6" height="2.4"/>
		<rect x="-1209.4" y="728.9" class="st5" width="9.6" height="2.4"/>
		<rect x="-1195" y="728.9" class="st2" width="9.6" height="2.4"/>
	</g>
	<g class="st8">
		<rect x="-966.8" y="696.8" class="st37" width="36.1" height="34.2"/>
		<rect x="-962.8" y="701.4" class="st37" width="28" height="25"/>
		<line class="st37" x1="-950.8" y1="726.4" x2="-950.8" y2="701.4"/>
		<line class="st37" x1="-934.8" y1="716.4" x2="-950.8" y2="716.4"/>
		<rect x="-948.3" y="705" class="st5" width="2" height="2"/>
		<rect x="-942.3" y="705" class="st2" width="2" height="2"/>
		<rect x="-939.3" y="705" class="st38" width="2" height="2"/>
		<rect x="-948.3" y="708" class="st2" width="2" height="2"/>
		<rect x="-945.3" y="708" class="st38" width="2" height="2"/>
		<rect x="-948.3" y="711" class="st38" width="2" height="2"/>
		<rect x="-942.3" y="711" class="st5" width="2" height="2"/>
		<rect x="-939.3" y="711" class="st2" width="2" height="2"/>
		<rect x="-948.3" y="719" class="st38" width="2" height="5"/>
		<rect x="-942.3" y="719" class="st5" width="5" height="2"/>
		<rect x="-942.3" y="722" class="st2" width="2" height="2"/>
		<rect x="-939.3" y="722" class="st39" width="2" height="2"/>
		<rect x="-959.3" y="705" class="st2" width="2" height="12"/>
		<rect x="-956.3" y="705" class="st38" width="2" height="12"/>
		<rect x="-960.3" y="722" class="st2" width="7" height="2"/>
		<rect x="-960.3" y="719" class="st5" width="7" height="2"/>
	</g>
	<path class="st35" d="M-908.8,731v-20c0-19.3-15.7-33-35-33h-10c-19.3,0-35,13.7-35,33v20"/>
	<g class="st8">
		<path class="st40" d="M-928.4,680.6c0,2.9-9.1,5.2-20.3,5.2c-11.2,0-20.3-2.3-20.3-5.2c0-4.7,9.1-5.2,20.3-5.2
			C-937.5,675.4-928.4,676.1-928.4,680.6z"/>
		<path class="st41" d="M-928.4,680.6c0,2.9-9.1,5.2-20.3,5.2c-11.2,0-20.3-2.3-20.3-5.2c0-4.7,9.1-5.2,20.3-5.2
			C-937.5,675.4-928.4,676.1-928.4,680.6z"/>
	</g>
	<path class="st42" d="M-929,653.2v0.3l-1.6,22.3l-0.4,5.2c-3.4,1.7-10.2,2.8-18.1,2.8c-7.6,0-14.2-1-17.7-2.6l-0.9-5.5l-3.3-22.2
		v-0.3c0-12.1,8.8-21.9,21-21.9S-929,641.2-929,653.2z"/>
	<g class="st8">
		<g>
			<defs>
				<path id="SVGID_13_" d="M-968.9,666.6c0,2.9,7.6,5.2,18.9,5.2s19.9-2.3,19.9-5.2l1-11.7c0-3-8-5.4-19.9-5.4s-21.7,2.4-21.7,5.4
					L-968.9,666.6z"/>
			</defs>
			<clipPath id="SVGID_14_">
				<use xlink:href="#SVGID_13_"  style="overflow:visible;"/>
			</clipPath>
			<polygon class="st43" points="-936.4,674.3 -946.4,674.3 -957.2,646.3 -947.2,646.3 			"/>
		</g>
		<g>
			<defs>
				<path id="SVGID_15_" d="M-968.9,666.6c0,2.9,7.6,5.2,18.9,5.2s19.9-2.3,19.9-5.2l1-11.7c0-3-8-5.4-19.9-5.4s-21.7,2.4-21.7,5.4
					L-968.9,666.6z"/>
			</defs>
			<clipPath id="SVGID_16_">
				<use xlink:href="#SVGID_15_"  style="overflow:visible;"/>
			</clipPath>
			<polygon class="st44" points="-928.4,674.3 -933.4,674.3 -944.2,646.3 -939.2,646.3 			"/>
		</g>
		<g>
			<path id="SVGID_39_" class="st37" d="M-968.9,666.6c0,2.9,7.6,5.2,18.9,5.2s19.9-2.3,19.9-5.2l1-11.7c0-3-8-5.4-19.9-5.4
				s-21.7,2.4-21.7,5.4L-968.9,666.6z"/>
		</g>
	</g>
	<path class="st45" d="M-968.9,666.6c0,2.9,7.6,5.2,18.9,5.2s19.9-2.3,19.9-5.2l1-11.7c0-3-4.1-18.2-20.9-18.2s-20.6,15.2-20.6,18.2
		L-968.9,666.6z"/>
	<g class="st8">
		<polygon class="st46" points="-982,632 -1022,632 -1022,656 -994.1,656 -988,662.7 -988,656 -982,656 		"/>
		<rect x="-1017" y="637.1" class="st5" width="2" height="2"/>
		<rect x="-1011" y="637.1" class="st2" width="2" height="2"/>
		<rect x="-1008" y="637.1" class="st38" width="4" height="2"/>
		<rect x="-1014" y="641.1" class="st5" width="5" height="2"/>
		<rect x="-1017" y="645.1" class="st38" width="2" height="2"/>
		<rect x="-1011" y="645.1" class="st5" width="2" height="2"/>
		<rect x="-1008" y="645.1" class="st2" width="4" height="2"/>
		<rect x="-1017" y="649.1" class="st38" width="2" height="2"/>
		<rect x="-1011" y="649.1" class="st5" width="2" height="2"/>
		<rect x="-1014" y="645.1" class="st38" width="2" height="2"/>
		<rect x="-1003" y="637.1" class="st5" width="2" height="2"/>
		<rect x="-997" y="637.1" class="st2" width="7" height="2"/>
		<rect x="-1003" y="641.1" class="st2" width="2" height="2"/>
		<rect x="-1000" y="641.1" class="st38" width="8" height="2"/>
		<rect x="-994" y="645.1" class="st5" width="4" height="2"/>
		<rect x="-1003" y="649.1" class="st38" width="2" height="2"/>
		<rect x="-997" y="649.1" class="st5" width="2" height="2"/>
		<rect x="-994" y="649.1" class="st2" width="4" height="2"/>
		<rect x="-989" y="637.1" class="st5" width="2" height="2"/>
		<rect x="-989" y="645.1" class="st38" width="2" height="2"/>
	</g>
	<g class="st8">
		<g>
			<g>
				<g>
					<g>
						<path class="st2" d="M-377.3,557.8h-11.3c-2.4,0-4.5-2.1-4.5-4.5v-31.8c0-2.4,2.1-4.5,4.5-4.5h11.3c2.5,0,4.5,2,4.5,4.5v31.8
							C-372.8,555.7-374.9,557.8-377.3,557.8z M-388.6,519c-1.4,0-2.5,1.1-2.5,2.5v31.8c0,1.4,1.1,2.5,2.5,2.5h11.3
							c1.4,0,2.5-1.1,2.5-2.5v-31.8c0-1.4-1.1-2.5-2.5-2.5H-388.6z"/>
					</g>
				</g>
				<g>
					<g>
						<path class="st2" d="M-381.5,523.4h-2.8c-0.6,0-1-0.4-1-1c0-0.6,0.4-1,1-1h2.8c0.6,0,1,0.4,1,1
							C-380.5,523-380.9,523.4-381.5,523.4z M-381.5,522.4h-2.8H-381.5L-381.5,522.4z"/>
					</g>
				</g>
				<g>
					<g>
						<path class="st2" d="M-382.9,554c-1,0-1.9-0.9-1.9-1.9s0.9-1.9,1.9-1.9s1.9,0.9,1.9,1.9S-381.9,554-382.9,554z M-382.9,551.2
							c-0.5,0-0.9,0.4-0.9,0.9s0.4,0.9,0.9,0.9s0.9-0.4,0.9-0.9S-382.4,551.2-382.9,551.2z"/>
					</g>
				</g>
				<g>
					<g>
						<path class="st2" d="M-376.2,548.6h-13.5v-23.9h13.5V548.6z M-388.7,547.6h11.5v-21.9h-11.5V547.6z"/>
					</g>
				</g>
				<g>
					<g>
						<g>
							<g>
								<path class="st5" d="M-385.4,529.2h-1.5c-0.3,0-0.5-0.2-0.5-0.5s0.2-0.5,0.5-0.5h1.5c0.3,0,0.5,0.2,0.5,0.5
									S-385.1,529.2-385.4,529.2z"/>
							</g>
							<g>
								<path class="st5" d="M-381.8,529.2h-1.8c-0.3,0-0.5-0.2-0.5-0.5s0.2-0.5,0.5-0.5h1.8c0.3,0,0.5,0.2,0.5,0.5
									S-381.5,529.2-381.8,529.2z"/>
							</g>
							<g>
								<path class="st5" d="M-378.5,529.2h-1.5c-0.3,0-0.5-0.2-0.5-0.5s0.2-0.5,0.5-0.5h1.5c0.3,0,0.5,0.2,0.5,0.5
									S-378.2,529.2-378.5,529.2z"/>
							</g>
						</g>
					</g>
				</g>
				<g>
					<g>
						<g>
							<g>
								<path class="st5" d="M-385.4,532.4h-1.5c-0.3,0-0.5-0.2-0.5-0.5c0-0.3,0.2-0.5,0.5-0.5h1.5c0.3,0,0.5,0.2,0.5,0.5
									C-384.9,532.2-385.1,532.4-385.4,532.4z"/>
							</g>
							<g>
								<path class="st5" d="M-381.6,532.4h-2.3c-0.3,0-0.5-0.2-0.5-0.5c0-0.3,0.2-0.5,0.5-0.5h2.3c0.3,0,0.5,0.2,0.5,0.5
									C-381.1,532.2-381.3,532.4-381.6,532.4z"/>
							</g>
							<g>
								<path class="st5" d="M-378.5,532.4h-1.5c-0.3,0-0.5-0.2-0.5-0.5c0-0.3,0.2-0.5,0.5-0.5h1.5c0.3,0,0.5,0.2,0.5,0.5
									C-378,532.2-378.2,532.4-378.5,532.4z"/>
							</g>
						</g>
					</g>
				</g>
				<g>
					<g>
						<g>
							<g>
								<path class="st2" d="M-384.4,535.6h-2.5c-0.3,0-0.5-0.2-0.5-0.5c0-0.3,0.2-0.5,0.5-0.5h2.5c0.3,0,0.5,0.2,0.5,0.5
									C-383.9,535.4-384.1,535.6-384.4,535.6z"/>
							</g>
							<g>
								<path class="st2" d="M-378.5,535.6h-2.5c-0.3,0-0.5-0.2-0.5-0.5c0-0.3,0.2-0.5,0.5-0.5h2.5c0.3,0,0.5,0.2,0.5,0.5
									C-378,535.4-378.2,535.6-378.5,535.6z"/>
							</g>
						</g>
					</g>
				</g>
				<g>
					<g>
						<g>
							<g>
								<path class="st2" d="M-385.4,538.8h-1.5c-0.3,0-0.5-0.2-0.5-0.5s0.2-0.5,0.5-0.5h1.5c0.3,0,0.5,0.2,0.5,0.5
									S-385.1,538.8-385.4,538.8z"/>
							</g>
							<g>
								<path class="st2" d="M-381.8,538.8h-1.8c-0.3,0-0.5-0.2-0.5-0.5s0.2-0.5,0.5-0.5h1.8c0.3,0,0.5,0.2,0.5,0.5
									S-381.5,538.8-381.8,538.8z"/>
							</g>
							<g>
								<path class="st2" d="M-378.5,538.8h-1.5c-0.3,0-0.5-0.2-0.5-0.5s0.2-0.5,0.5-0.5h1.5c0.3,0,0.5,0.2,0.5,0.5
									S-378.2,538.8-378.5,538.8z"/>
							</g>
						</g>
					</g>
				</g>
				<g>
					<g>
						<g>
							<g>
								<path class="st2" d="M-385.4,542h-1.5c-0.3,0-0.5-0.2-0.5-0.5s0.2-0.5,0.5-0.5h1.5c0.3,0,0.5,0.2,0.5,0.5
									S-385.1,542-385.4,542z"/>
							</g>
							<g>
								<path class="st2" d="M-381.6,542h-2.3c-0.3,0-0.5-0.2-0.5-0.5s0.2-0.5,0.5-0.5h2.3c0.3,0,0.5,0.2,0.5,0.5
									S-381.3,542-381.6,542z"/>
							</g>
							<g>
								<path class="st2" d="M-378.5,542h-1.5c-0.3,0-0.5-0.2-0.5-0.5s0.2-0.5,0.5-0.5h1.5c0.3,0,0.5,0.2,0.5,0.5
									S-378.2,542-378.5,542z"/>
							</g>
						</g>
					</g>
				</g>
				<g>
					<g>
						<g>
							<g>
								<path class="st2" d="M-385.4,545.2h-1.5c-0.3,0-0.5-0.2-0.5-0.5s0.2-0.5,0.5-0.5h1.5c0.3,0,0.5,0.2,0.5,0.5
									S-385.1,545.2-385.4,545.2z"/>
							</g>
							<g>
								<path class="st2" d="M-381.6,545.2h-2.3c-0.3,0-0.5-0.2-0.5-0.5s0.2-0.5,0.5-0.5h2.3c0.3,0,0.5,0.2,0.5,0.5
									S-381.3,545.2-381.6,545.2z"/>
							</g>
							<g>
								<path class="st2" d="M-378.5,545.2h-1.5c-0.3,0-0.5-0.2-0.5-0.5s0.2-0.5,0.5-0.5h1.5c0.3,0,0.5,0.2,0.5,0.5
									S-378.2,545.2-378.5,545.2z"/>
							</g>
						</g>
					</g>
				</g>
			</g>
			<g>
				<g>
					<g>
						<path class="st2" d="M-406.1,569.8h-33.4c-2.8,0-5-2.2-5-5v-53.4c0-2.8,2.2-5,5-5h33.4c2.8,0,5,2.2,5,5v53.4
							C-401.1,567.6-403.3,569.8-406.1,569.8z M-439.5,508.4c-1.7,0-3,1.3-3,3v53.4c0,1.7,1.3,3,3,3h33.4c1.7,0,3-1.3,3-3v-53.4
							c0-1.7-1.3-3-3-3H-439.5z"/>
					</g>
				</g>
				<g>
					<g>
						<circle class="st2" cx="-422.8" cy="511.2" r="1.1"/>
					</g>
				</g>
				<g>
					<g>
						<path class="st2" d="M-422.8,566.4c-1.3,0-2.4-1.1-2.4-2.4s1.1-2.4,2.4-2.4s2.4,1.1,2.4,2.4S-421.5,566.4-422.8,566.4z
							 M-422.8,562.6c-0.8,0-1.4,0.6-1.4,1.4s0.6,1.4,1.4,1.4s1.4-0.6,1.4-1.4S-422,562.6-422.8,562.6z"/>
					</g>
				</g>
				<g class="st47">
					<g>
						<rect x="-439.9" y="514.1" class="st5" width="34.1" height="46.8"/>
					</g>
				</g>
				<g>
					<g>
						<path class="st2" d="M-405.3,561.4h-35.1v-47.8h35.1V561.4L-405.3,561.4z M-439.4,560.4h33.1v-45.8h-33.1V560.4z"/>
					</g>
				</g>
				<g>
					<g>
						<g>
							<path class="st2" d="M-415.2,545.4l-19-20.2l20.2,19c0.3,0.3,0.4,0.8,0,1.2C-414.3,545.7-414.9,545.7-415.2,545.4
								L-415.2,545.4z"/>
						</g>
					</g>
					<g>
						<g>
							<path class="st2" d="M-418,546.8l-14.3-15.5l15.5,14.3c0.3,0.3,0.4,0.8,0,1.2C-417.1,547.1-417.6,547.1-418,546.8L-418,546.8
								z"/>
						</g>
					</g>
					<g>
						<g>
							<path class="st2" d="M-420.9,546.8l-9.5-10.3l10.3,9.5c0.2,0.2,0.2,0.6,0,0.8C-420.3,547-420.6,547.1-420.9,546.8
								L-420.9,546.8z"/>
						</g>
					</g>
					<g>
						<g>
							<path class="st2" d="M-413,539.7l-9.9-10.7l10.7,9.9c0.2,0.2,0.2,0.6,0,0.8C-412.3,539.9-412.7,539.9-413,539.7
								C-412.9,539.7-412.9,539.7-413,539.7z"/>
						</g>
					</g>
					<g>
						<g>
							<path class="st2" d="M-413.8,542.7l-14.3-15.5l15.5,14.3c0.3,0.3,0.4,0.8,0,1.2C-412.9,543-413.4,543.1-413.8,542.7
								L-413.8,542.7z"/>
						</g>
					</g>
					<g>
						<g>
							<path class="st2" d="M-423.9,546l-4.5-4.9l4.9,4.5c0.1,0.1,0.1,0.3,0,0.4S-423.7,546.1-423.9,546
								C-423.8,546-423.9,546-423.9,546z"/>
						</g>
					</g>
					<g>
						<g>
							<path class="st2" d="M-413.3,536.1l-4.5-4.9l4.9,4.5c0.1,0.1,0.1,0.3,0,0.4C-413,536.3-413.2,536.3-413.3,536.1
								C-413.3,536.2-413.3,536.2-413.3,536.1z"/>
						</g>
					</g>
				</g>
			</g>
		</g>
	</g>
	<g class="st8">
		<g>
			<path class="st2" d="M-199.5,561c-33.9,0-61.5-27.6-61.5-61.5s27.6-61.5,61.5-61.5s61.5,27.6,61.5,61.5S-165.6,561-199.5,561z
				 M-199.5,441c-32.3,0-58.5,26.2-58.5,58.5s26.2,58.5,58.5,58.5s58.5-26.2,58.5-58.5S-167.2,441-199.5,441z"/>
		</g>
		<g class="st48">
			<rect x="-219.4" y="484.1" class="st5" width="19.6" height="19.6"/>
		</g>
		<g class="st48">
			<rect x="-194" y="509.1" class="st5" width="19.6" height="19.6"/>
		</g>
		<g>
			<path class="st2" d="M-199.8,504.7h-19.6c-0.6,0-1-0.4-1-1v-19.6c0-0.6,0.4-1,1-1h19.6c0.6,0,1,0.4,1,1v19.6
				C-198.8,504.3-199.2,504.7-199.8,504.7z M-218.4,502.7h17.6v-17.6h-17.6V502.7z"/>
		</g>
		<g>
			<path class="st2" d="M-180.2,504.7h-19.6c-0.6,0-1-0.4-1-1v-19.6c0-0.6,0.4-1,1-1h19.6c0.6,0,1,0.4,1,1v19.6
				C-179.2,504.3-179.6,504.7-180.2,504.7z M-198.8,502.7h17.6v-17.6h-17.6V502.7z"/>
		</g>
		<g>
			<path class="st2" d="M-207.1,497.5c-0.1,0-0.2,0-0.3-0.1c-0.5-0.2-0.8-0.8-0.6-1.3c0-0.1,2.4-6.4,5.4-13
				c-4.3-1.6-12.1-5.2-13.7-9.8c-0.5-1.6-0.5-4.1,2.6-6.5c1.6-1.2,3.3-1.5,5-0.9c2.9,1,5.9,4.9,8.9,11.5c5.2-9.6,7.9-10,8.9-10.1
				c0.9-0.1,2.1,0,3.2,1.5c1.7,2.2,2,4.5,0.8,6.8c-1.9,3.8-7.4,6.6-10.6,7.8c2.4,6.7,3.9,12.9,3.9,12.9c0.1,0.5-0.2,1.1-0.7,1.2
				c-0.5,0.1-1.1-0.2-1.2-0.7c-0.7-2.9-2.1-7.9-3.9-12.8c-0.2,0.1-0.4,0.1-0.5,0.1s-0.4-0.1-0.9-0.2c-2.1,4.5-4.1,9.2-5.5,13
				C-206.3,497.2-206.7,497.5-207.1,497.5z M-198.7,479.8c0.2,0.5,0.4,1.1,0.7,1.7c2.8-1.1,8.2-3.7,9.6-7c0.7-1.5,0.4-3-0.7-4.5
				c-0.6-0.7-1-0.8-1.3-0.7C-192.7,469.6-195.8,474.1-198.7,479.8z M-210.3,467.7c-0.7,0-1.4,0.3-2.1,0.8c-1.7,1.3-2.4,2.7-2,4
				c1,3.7,8.8,7.4,12.7,8.8c0.3-0.6,0.5-1.1,0.8-1.6c-2.4-5.8-5.3-10.8-8.3-11.9C-209.6,467.7-209.9,467.7-210.3,467.7z"/>
		</g>
		<g>
			<path class="st2" d="M-174.4,529.7H-194c-0.6,0-1-0.4-1-1v-19.6c0-0.6,0.4-1,1-1h19.6c0.6,0,1,0.4,1,1v19.6
				C-173.4,529.3-173.8,529.7-174.4,529.7z M-193,527.7h17.6v-17.6H-193V527.7z"/>
		</g>
		<g>
			<path class="st2" d="M-199.8,525h-19.6c-0.6,0-1-0.4-1-1v-19.6c0-0.6,0.4-1,1-1h19.6c0.6,0,1,0.4,1,1V524
				C-198.8,524.6-199.2,525-199.8,525z M-218.4,523h17.6v-17.6h-17.6V523z"/>
		</g>
		<g>
			<g>
				<g>
					<defs>
						<circle id="SVGID_17_" cx="-199.5" cy="499.5" r="60"/>
					</defs>
					<clipPath id="SVGID_18_">
						<use xlink:href="#SVGID_17_"  style="overflow:visible;"/>
					</clipPath>
					<g class="st49">
						<g class="st48">
							<rect x="-229.7" y="531.4" class="st5" width="19.6" height="19.6"/>
						</g>
						<g>
							<path class="st2" d="M-210.1,552h-19.6c-0.6,0-1-0.4-1-1v-19.6c0-0.6,0.4-1,1-1h19.6c0.6,0,1,0.4,1,1V551
								C-209.1,551.6-209.5,552-210.1,552z M-228.7,550h17.6v-17.6h-17.6V550z"/>
						</g>
						<g>
							<path class="st2" d="M-140.3,532.4h-19.6c-0.6,0-1-0.4-1-1v-19.6c0-0.6,0.4-1,1-1h19.6c0.6,0,1,0.4,1,1v19.6
								C-139.3,532-139.7,532.4-140.3,532.4z M-158.9,530.4h17.6v-17.6h-17.6V530.4z"/>
						</g>
						<g>
							<path class="st2" d="M-175.8,562.3h-19.6c-0.6,0-1-0.4-1-1v-19.6c0-0.6,0.4-1,1-1h19.6c0.6,0,1,0.4,1,1v19.6
								C-174.8,561.9-175.2,562.3-175.8,562.3z M-194.4,560.3h17.6v-17.6h-17.6V560.3z"/>
						</g>
						<g>
							<path class="st2" d="M-225.5,525h-19.6c-0.6,0-1-0.4-1-1v-19.6c0-0.6,0.4-1,1-1h19.6c0.6,0,1,0.4,1,1V524
								C-224.5,524.6-224.9,525-225.5,525z M-244.1,523h17.6v-17.6h-17.6V523z"/>
						</g>
						<g class="st48">
							<rect x="-271.1" y="504.4" class="st5" width="19.6" height="19.6"/>
						</g>
						<g>
							<path class="st2" d="M-251.5,525h-19.6c-0.6,0-1-0.4-1-1v-19.6c0-0.6,0.4-1,1-1h19.6c0.6,0,1,0.4,1,1V524
								C-250.5,524.6-250.9,525-251.5,525z M-270.1,523h17.6v-17.6h-17.6V523z"/>
						</g>
					</g>
				</g>
			</g>
		</g>
	</g>
	<g class="st8">
		<g>
			<path class="st50" d="M148.4,459.7H88.8v-51.1h59.6V459.7z M90.8,457.7h55.6v-47.1H90.8V457.7z"/>
		</g>
		<g class="st48">
			<path class="st2" d="M89.8,409.6v-3.4c0-2.2,1.8-3.9,3.9-3.9h49.8c2.2,0,3.9,1.8,3.9,3.9v3.4H89.8z"/>
		</g>
		<g>
			<path class="st2" d="M148.4,409.6h-2v-3.4c0-1.6-1.3-2.9-2.9-2.9H93.7c-1.6,0-2.9,1.3-2.9,2.9v3.4h-2v-3.4c0-2.7,2.2-4.9,4.9-4.9
				h49.8c2.7,0,4.9,2.2,4.9,4.9V409.6z"/>
		</g>
		<g>
			<path class="st2" d="M128.9,441.8h-4c-0.6,0-1-0.4-1-1c0-0.6,0.4-1,1-1h4c0.6,0,1,0.4,1,1C129.9,441.4,129.5,441.8,128.9,441.8z
				 M120.9,441.8h-2c-0.6,0-1-0.4-1-1c0-0.6,0.4-1,1-1h2c0.6,0,1,0.4,1,1C121.9,441.4,121.5,441.8,120.9,441.8z M114.9,441.8h-4
				c-0.6,0-1-0.4-1-1c0-0.6,0.4-1,1-1h4c0.6,0,1,0.4,1,1C115.9,441.4,115.5,441.8,114.9,441.8z M106.9,441.8h-2c-0.6,0-1-0.4-1-1
				c0-0.6,0.4-1,1-1h2c0.6,0,1,0.4,1,1C107.9,441.4,107.5,441.8,106.9,441.8z"/>
		</g>
		<g>
			<path class="st2" d="M133.5,433.4h-4c-0.6,0-1-0.4-1-1s0.4-1,1-1h4c0.6,0,1,0.4,1,1S134.1,433.4,133.5,433.4z M125.5,433.4h-2
				c-0.6,0-1-0.4-1-1s0.4-1,1-1h2c0.6,0,1,0.4,1,1S126.1,433.4,125.5,433.4z M119.5,433.4h-4c-0.6,0-1-0.4-1-1s0.4-1,1-1h4
				c0.6,0,1,0.4,1,1S120.1,433.4,119.5,433.4z M111.5,433.4h-2c-0.6,0-1-0.4-1-1s0.4-1,1-1h2c0.6,0,1,0.4,1,1
				S112.1,433.4,111.5,433.4z"/>
		</g>
		<g>
			<path class="st2" d="M115,425h-4c-0.6,0-1-0.4-1-1s0.4-1,1-1h4c0.6,0,1,0.4,1,1S115.6,425,115,425z M107,425h-2c-0.6,0-1-0.4-1-1
				s0.4-1,1-1h2c0.6,0,1,0.4,1,1S107.6,425,107,425z"/>
		</g>
		<g>
			<path class="st50" d="M96,407.6c-0.9,0-1.7-0.8-1.7-1.7s0.8-1.7,1.7-1.7s1.7,0.8,1.7,1.7S97,407.6,96,407.6z M96,405.2
				c-0.4,0-0.7,0.3-0.7,0.7s0.3,0.7,0.7,0.7s0.7-0.3,0.7-0.7S96.4,405.2,96,405.2z"/>
		</g>
		<g>
			<path class="st50" d="M100.8,407.6c-0.9,0-1.7-0.8-1.7-1.7s0.8-1.7,1.7-1.7s1.7,0.8,1.7,1.7S101.8,407.6,100.8,407.6z
				 M100.8,405.2c-0.4,0-0.7,0.3-0.7,0.7s0.3,0.7,0.7,0.7s0.7-0.3,0.7-0.7S101.2,405.2,100.8,405.2z"/>
		</g>
		<g>
			<path class="st50" d="M105.6,407.6c-0.9,0-1.7-0.8-1.7-1.7s0.8-1.7,1.7-1.7s1.7,0.8,1.7,1.7S106.6,407.6,105.6,407.6z
				 M105.6,405.2c-0.4,0-0.7,0.3-0.7,0.7s0.3,0.7,0.7,0.7s0.7-0.3,0.7-0.7S106,405.2,105.6,405.2z"/>
		</g>
	</g>
</g>
</svg>
